<?xml version="1.0" encoding="UTF-8" standalone="no"?>
<svg
   xmlns:dc="http://purl.org/dc/elements/1.1/"
   xmlns:cc="http://creativecommons.org/ns#"
   xmlns:rdf="http://www.w3.org/1999/02/22-rdf-syntax-ns#"
   xmlns:svg="http://www.w3.org/2000/svg"
   xmlns="http://www.w3.org/2000/svg"
   xmlns:sodipodi="http://sodipodi.sourceforge.net/DTD/sodipodi-0.dtd"
   xmlns:inkscape="http://www.inkscape.org/namespaces/inkscape"
   inkscape:export-ydpi="300.89999"
   inkscape:export-xdpi="300.89999"
   inkscape:export-filename="C:\Users\Niel\Downloads\sasdfws.png"
   viewBox="0 0 499.25236 732.43885"
   id="svg1118"
   height="732.43884"
   width="499.25235"
   version="1.1"
   sodipodi:docname="Insignia_of_the_Indonesian_Army.svg"
   inkscape:version="1.0 (4035a4fb49, 2020-05-01)">
  <sodipodi:namedview
     pagecolor="#ffffff"
     bordercolor="#666666"
     borderopacity="1"
     objecttolerance="10"
     gridtolerance="10"
     guidetolerance="10"
     inkscape:pageopacity="0"
     inkscape:pageshadow="2"
     inkscape:window-width="1366"
     inkscape:window-height="705"
     id="namedview159"
     showgrid="false"
     inkscape:zoom="0.23611117"
     inkscape:cx="1220.9719"
     inkscape:cy="417.13942"
     inkscape:window-x="-8"
     inkscape:window-y="-8"
     inkscape:window-maximized="1"
     inkscape:current-layer="Layer1000"
     inkscape:document-rotation="0" />
  <metadata
     id="metadata1124">
    <rdf:RDF>
      <cc:Work
         rdf:about="">
        <dc:format>image/svg+xml</dc:format>
        <dc:type
           rdf:resource="http://purl.org/dc/dcmitype/StillImage" />
        <dc:title />
      </cc:Work>
    </rdf:RDF>
  </metadata>
  <defs
     id="defs1122">
    <inkscape:path-effect
       overflow_perspective="false"
       vertical_mirror="false"
       horizontal_mirror="false"
       deform_type="perspective"
       lpeversion="1"
       is_visible="true"
       id="path-effect1144"
       down_right_point="570.42823,799.80155"
       down_left_point="563.64757,798.34257"
       up_right_point="570.42823,773.63554"
       up_left_point="563.64757,771.90311"
       effect="perspective-envelope" />
    <inkscape:path-effect
       overflow_perspective="false"
       vertical_mirror="false"
       horizontal_mirror="false"
       deform_type="perspective"
       lpeversion="1"
       is_visible="true"
       id="path-effect1142"
       down_right_point="562.09593,798.01054"
       down_left_point="552.70795,796.08866"
       up_right_point="562.09593,771.52811"
       up_left_point="552.70795,769.3328"
       effect="perspective-envelope" />
    <inkscape:path-effect
       overflow_perspective="false"
       vertical_mirror="false"
       horizontal_mirror="false"
       deform_type="perspective"
       lpeversion="1"
       is_visible="true"
       id="path-effect1140"
       down_right_point="551.16454,795.79374"
       down_left_point="537.29658,793.22733"
       up_right_point="551.16454,769.00077"
       up_left_point="537.29658,766.30741"
       effect="perspective-envelope" />
    <inkscape:path-effect
       overflow_perspective="false"
       vertical_mirror="false"
       horizontal_mirror="false"
       deform_type="perspective"
       lpeversion="1"
       is_visible="true"
       id="path-effect1138"
       down_right_point="537.1443,793.2"
       down_left_point="524.15505,791.1082"
       up_right_point="537.1443,766.28203"
       up_left_point="524.15505,764.36797"
       effect="perspective-envelope" />
    <inkscape:path-effect
       overflow_perspective="false"
       vertical_mirror="false"
       horizontal_mirror="false"
       deform_type="perspective"
       lpeversion="1"
       is_visible="true"
       id="path-effect1136"
       down_right_point="523.4101,790.99688"
       down_left_point="511.64527,789.39727"
       up_right_point="523.4101,764.27031"
       up_left_point="511.64527,762.96367"
       effect="perspective-envelope" />
    <inkscape:path-effect
       overflow_perspective="false"
       vertical_mirror="false"
       horizontal_mirror="false"
       deform_type="perspective"
       lpeversion="1"
       is_visible="true"
       id="path-effect1134"
       down_right_point="499.6335,788.08671"
       down_left_point="486.64423,787.06913"
       up_right_point="499.6335,761.89335"
       up_left_point="486.64423,760.99101"
       effect="perspective-envelope" />
    <inkscape:path-effect
       overflow_perspective="false"
       vertical_mirror="false"
       horizontal_mirror="false"
       deform_type="perspective"
       lpeversion="1"
       is_visible="true"
       id="path-effect1132"
       down_right_point="486.49196,787.0594"
       down_left_point="473.40803,786.48127"
       up_right_point="486.49196,760.98127"
       up_left_point="473.40803,760.45197"
       effect="perspective-envelope" />
    <inkscape:path-effect
       overflow_perspective="false"
       vertical_mirror="false"
       horizontal_mirror="false"
       deform_type="perspective"
       lpeversion="1"
       is_visible="true"
       id="path-effect1130"
       down_right_point="471.56419,786.4326"
       down_left_point="461.15344,786.3525"
       up_right_point="471.56419,760.41291"
       up_left_point="461.15344,760.29977"
       effect="perspective-envelope" />
    <inkscape:path-effect
       overflow_perspective="false"
       vertical_mirror="false"
       horizontal_mirror="false"
       deform_type="perspective"
       lpeversion="1"
       is_visible="true"
       id="path-effect1128"
       down_right_point="449.09434,786.6121"
       down_left_point="436.02483,787.33671"
       up_right_point="449.09434,760.46757"
       up_left_point="436.02483,761.00468"
       effect="perspective-envelope" />
    <inkscape:path-effect
       overflow_perspective="false"
       vertical_mirror="false"
       horizontal_mirror="false"
       deform_type="perspective"
       lpeversion="1"
       is_visible="true"
       id="path-effect1126"
       down_right_point="435.79847,787.35234"
       down_left_point="422.73719,788.49297"
       up_right_point="435.79847,761.01641"
       up_left_point="422.73719,761.94414"
       effect="perspective-envelope" />
    <inkscape:path-effect
       overflow_perspective="false"
       vertical_mirror="false"
       horizontal_mirror="false"
       deform_type="perspective"
       lpeversion="1"
       is_visible="true"
       id="path-effect1124"
       down_right_point="421.35018,788.62969"
       down_left_point="414.58597,789.38555"
       up_right_point="421.35018,762.06719"
       up_left_point="414.58597,762.71758"
       effect="perspective-envelope" />
    <inkscape:path-effect
       overflow_perspective="false"
       vertical_mirror="false"
       horizontal_mirror="false"
       deform_type="perspective"
       lpeversion="1"
       is_visible="true"
       id="path-effect1122"
       down_right_point="413.30598,789.53203"
       down_left_point="401.53498,791.08867"
       up_right_point="413.30598,762.8543"
       up_left_point="401.53498,764.29961"
       effect="perspective-envelope" />
    <inkscape:path-effect
       overflow_perspective="false"
       vertical_mirror="false"
       horizontal_mirror="false"
       deform_type="perspective"
       lpeversion="1"
       is_visible="true"
       id="path-effect1120"
       down_right_point="400.53074,791.22929"
       down_left_point="387.59705,793.20976"
       up_right_point="400.53074,764.43827"
       up_left_point="387.59705,766.47343"
       effect="perspective-envelope" />
    <inkscape:path-effect
       overflow_perspective="false"
       vertical_mirror="false"
       horizontal_mirror="false"
       deform_type="perspective"
       lpeversion="1"
       is_visible="true"
       id="path-effect1118"
       down_right_point="387.04555,793.2996"
       down_left_point="373.82375,795.55351"
       up_right_point="387.04555,766.57108"
       up_left_point="373.82375,769.17655"
       effect="perspective-envelope" />
    <inkscape:path-effect
       overflow_perspective="false"
       vertical_mirror="false"
       horizontal_mirror="false"
       deform_type="perspective"
       lpeversion="1"
       is_visible="true"
       id="path-effect1116"
       down_right_point="373.70233,795.57499"
       down_left_point="359.09559,798.28788"
       up_right_point="373.70233,769.20194"
       up_left_point="359.09559,772.78788"
       effect="perspective-envelope" />
  </defs>
  <g
     inkscape:groupmode="layer"
     id="layer2"
     inkscape:label="Layer 2">
    <path
       id="path920"
       style="fill:#399938;fill-opacity:1;fill-rule:evenodd;stroke:#000000;stroke-width:5;stroke-linecap:butt;stroke-linejoin:miter;stroke-miterlimit:4;stroke-dasharray:none;stroke-opacity:1"
       d="m 373.30648,534.98766 c -8.0919,-54.73979 -4.3908,-98.63619 56.1272,-90.28679 77.8945,55.5946 -9.1467,98.20609 -5.311,151.73539 21.0268,45.0805 17.0964,66.4948 -7.5121,68.3016 -17.2575,10.9978 -32.5367,13.2375 -46.2361,8.4801 -0.2461,-1.8667 -0.6897,-3.8453 -1.3684,-5.9396 l -19.7523,-40.7512 c 44.709,19.9823 82.4829,-0.1707 51.5639,-24.2802 z m 32.1596,-40.20709 c -5.4486,-9.9769 3.3416,-14.3973 8.0479,-3.5496 12.3998,31.857 6.0425,40.20639 -16.1359,72.25449 l -1.911,-2.463 c 11.5578,-13.2924 20.2491,-27.7505 21.3339,-39.19369 0.8988,-9.481 -5.9729,-16.7359 -11.3349,-27.0482 z"
       inkscape:connector-curvature="0" />
    <path
       id="path922"
       style="fill:none;fill-opacity:1;fill-rule:evenodd;stroke:#000000;stroke-width:5;stroke-linecap:butt;stroke-linejoin:miter;stroke-miterlimit:4;stroke-dasharray:none;stroke-opacity:1"
       d="m 407.75718,580.04636 c 40.7454,49.516 -3.9907,92.3851 -40.9766,82.6404"
       inkscape:connector-curvature="0" />
    <path
       id="path924"
       style="fill:none;fill-opacity:1;fill-rule:evenodd;stroke:#000000;stroke-width:5;stroke-linecap:butt;stroke-linejoin:miter;stroke-miterlimit:4;stroke-dasharray:none;stroke-opacity:1"
       d="m 423.33788,626.43576 c 4.3212,5.0309 6.597,22.0702 -6.7273,38.3021"
       inkscape:connector-curvature="0" />
    <path
       id="path1001"
       style="fill:#399938;fill-opacity:1;fill-rule:evenodd;stroke:#000000;stroke-width:5;stroke-linecap:butt;stroke-linejoin:miter;stroke-miterlimit:4;stroke-dasharray:none;stroke-opacity:1"
       d="m 127.72298,535.39056 c 8.0947,-54.73979 4.3922,-98.63619 -56.148704,-90.28679 -77.9240998,55.5947 9.1499,98.20619 5.3132,151.73539 -21.035,45.0805 -17.1032,66.4949 7.5149,68.3016 16.439904,10.4727 31.085104,13.0035 44.280404,9.1135 0.0661,-2.6851 0.4458,-5.6696 1.1999,-8.9777 l 18.6581,-36.964 c -43.2759,17.6161 -78.519304,-2.1383 -48.3397,-25.6627 z M 95.550876,495.18347 c 5.450704,-9.9768 -3.3431,-14.3973 -8.0511,-3.5496 -12.4045,31.857 -6.0447,40.20639 16.142304,72.25449 l 1.9118,-2.4629 c -11.562604,-13.2925 -20.257004,-27.7505 -21.342204,-39.19369 -0.8991,-9.4811 5.975,-16.736 11.3392,-27.0483 z"
       inkscape:connector-curvature="0" />
    <path
       id="path1003"
       style="fill:none;fill-opacity:1;fill-rule:evenodd;stroke:#000000;stroke-width:5;stroke-linecap:butt;stroke-linejoin:miter;stroke-miterlimit:4;stroke-dasharray:none;stroke-opacity:1"
       d="m 93.258676,580.44936 c -39.4241,47.8924 1.1499,89.5609 37.331204,83.4258"
       inkscape:connector-curvature="0" />
    <path
       id="path1005"
       style="fill:none;fill-opacity:1;fill-rule:evenodd;stroke:#000000;stroke-width:5;stroke-linecap:butt;stroke-linejoin:miter;stroke-miterlimit:4;stroke-dasharray:none;stroke-opacity:1"
       d="m 77.672176,626.83866 c -4.3229,5.0309 -6.5994,22.0702 6.7302,38.3021"
       inkscape:connector-curvature="0" />
    <path
       sodipodi:nodetypes="sssssss"
       id="path5659"
       d="m 415.18825,506.28924 c -0.30101,-0.54008 -1.80747,-3.0877 -3.34769,-5.66136 -4.55027,-7.60333 -5.78533,-10.32692 -5.46365,-12.04856 0.17689,-0.94665 0.39557,-1.16549 0.95293,-0.95358 1.4596,0.55494 2.99636,2.6554 4.19747,5.73716 1.72765,4.43269 5.56956,15.81687 5.38665,16.36331 -0.0305,0.091 -1.42471,-2.89688 -1.72571,-3.43697 z"
       style="fill:#000000;fill-opacity:1;stroke:#000000;stroke-width:0.935876;stroke-linecap:round;stroke-linejoin:round;stroke-miterlimit:4;stroke-dasharray:none;stroke-opacity:1;paint-order:fill markers stroke;stop-color:#000000" />
    <path
       style="fill:#000000;fill-opacity:1;stroke:#000000;stroke-width:0.935876;stroke-linecap:round;stroke-linejoin:round;stroke-miterlimit:4;stroke-dasharray:none;stroke-opacity:1;paint-order:fill markers stroke;stop-color:#000000"
       d="m 85.915746,506.28924 c 0.30101,-0.54008 1.80747,-3.0877 3.34769,-5.66136 4.55027,-7.60333 5.78533,-10.32692 5.46365,-12.04856 -0.17689,-0.94665 -0.39557,-1.16549 -0.95293,-0.95358 -1.4596,0.55494 -2.99636,2.6554 -4.19747,5.73716 -1.72765,4.43269 -5.56956,15.81687 -5.38665,16.36331 0.0305,0.091 1.42471,-2.89688 1.72571,-3.43697 z"
       id="path5661"
       sodipodi:nodetypes="sssssss" />
  </g>
  <g
     inkscape:groupmode="layer"
     id="layer1"
     inkscape:label="Layer 1" />
  <g
     transform="translate(925.65986,-476.35703)"
     id="Layer1000">
    <g
       id="Layer1002"
       transform="translate(-1242.9635,417.48391)"
       style="fill:#ffcc00;fill-opacity:1">
      <path
         inkscape:connector-curvature="0"
         d="m 647.9155,436.3323 c 44.7401,31.6326 87.0437,67.6443 107.1407,74.1191 0.7394,0.2383 1.481,0.3919 2.2204,0.4673 -1.2367,16.9856 -12.6531,27.1768 -22.3499,20.4466 -19.1746,-13.3085 -51.6142,-47.3474 -87.0112,-85.6031 z"
         style="fill:#ffcc00;fill-rule:evenodd;stroke:#000000;stroke-width:5;stroke-linecap:butt;stroke-linejoin:miter;stroke-dasharray:none;fill-opacity:1;stroke-miterlimit:4;stroke-opacity:1"
         id="path819" />
      <path
         inkscape:connector-curvature="0"
         d="m 647.9155,430.9027 c 48.2883,19.564 93.0288,41.0394 113.3125,47.5738 4.2015,1.3535 9.7393,0.6334 15.0689,-1.8317 3.176,19.6015 -9.2906,37.6563 -21.2407,33.8066 -20.097,-6.4748 -62.4006,-42.4861 -107.1407,-74.1191 z"
         style="fill:#ffcc00;fill-rule:evenodd;stroke:#000000;stroke-width:5;stroke-linecap:butt;stroke-linejoin:miter;stroke-dasharray:none;fill-opacity:1;stroke-miterlimit:4;stroke-opacity:1"
         id="path821" />
      <path
         inkscape:connector-curvature="0"
         d="m 793.9863,447.5351 c 1.7335,22.0109 -20.8668,34.7722 -32.7583,30.9414 -20.2837,-6.5344 -65.0242,-28.0098 -113.3125,-47.5738 v -3.2363 c 57.2142,7.1199 115.0875,19.9498 136.5951,22.6988 3.1384,0.4012 6.4698,-0.6586 9.4757,-2.8301 z"
         style="fill:#ffcc00;fill-rule:evenodd;stroke:#000000;stroke-width:5;stroke-linecap:butt;stroke-linejoin:miter;stroke-dasharray:none;fill-opacity:1;stroke-miterlimit:4;stroke-opacity:1"
         id="path823" />
      <path
         inkscape:connector-curvature="0"
         d="m 647.9155,424.1793 c 42.3133,-1.8021 125.0276,-1.033 149.5468,-18.0401 15.7554,23.4015 -0.1986,45.856 -12.9517,44.226 -21.5076,-2.749 -79.3812,-15.5793 -136.5951,-22.6995 z"
         style="fill:#ffcc00;fill-rule:evenodd;stroke:#000000;stroke-width:5;stroke-linecap:butt;stroke-linejoin:miter;stroke-dasharray:none;fill-opacity:1;stroke-miterlimit:4;stroke-opacity:1"
         id="path825" />
      <path
         inkscape:connector-curvature="0"
         d="m 808.505,351.5454 c 10.3134,16.9028 1.9983,37.8657 -6.0189,49.75 -14.8485,22.0102 -108.5802,20.9275 -154.5706,22.8853 v -3.8146 c 61.9362,-18.322 136.1961,-49.8139 151.9615,-59.2392 2.4147,-1.4439 5.7057,-4.867 8.628,-9.5815 z"
         style="fill:#ffcc00;fill-rule:evenodd;stroke:#000000;stroke-width:5;stroke-linecap:butt;stroke-linejoin:miter;stroke-dasharray:none;fill-opacity:1;stroke-miterlimit:4;stroke-opacity:1"
         id="path827" />
      <path
         inkscape:connector-curvature="0"
         d="m 647.9155,413.8092 c 62.0194,-33.0973 133.7106,-80.5629 148.4333,-91.5492 2.7034,-2.0172 6.9006,-8.3762 10.2352,-16.7731 19.4757,23.4936 1.422,50.7798 -6.707,55.64 -15.7654,9.4253 -90.0253,40.9172 -151.9615,59.2392 z"
         style="fill:#ffcc00;fill-rule:evenodd;stroke:#000000;stroke-width:5;stroke-linecap:butt;stroke-linejoin:miter;stroke-dasharray:none;fill-opacity:1;stroke-miterlimit:4;stroke-opacity:1"
         id="path829" />
      <path
         inkscape:connector-curvature="0"
         d="m 801.2665,252.4574 c 22.6471,23.0446 2.7884,64.0519 -4.9177,69.8026 -14.7227,10.9863 -86.4139,58.4519 -148.4333,91.5492 v -2.6877 c 59.5929,-54.2254 129.4059,-125.539 143.4489,-137.8292 3.4309,-3.003 7.2985,-10.8859 9.9021,-20.8349 z"
         style="fill:#ffcc00;fill-rule:evenodd;stroke:#000000;stroke-width:5;stroke-linecap:butt;stroke-linejoin:miter;stroke-dasharray:none;fill-opacity:1;stroke-miterlimit:4;stroke-opacity:1"
         id="path831" />
      <path
         inkscape:connector-curvature="0"
         d="m 647.9155,401.8559 c 49.1667,-66.3081 112.2866,-156.7077 121.9934,-172.012 9.4732,-14.9364 10.9253,-30.9104 6.6631,-45.2981 42.6911,13.873 26.287,78.6861 14.7924,88.7465 -14.0423,12.2898 -83.8567,83.6063 -143.4489,137.8317 z"
         style="fill:#ffcc00;fill-rule:evenodd;stroke:#000000;stroke-width:5;stroke-linecap:butt;stroke-linejoin:miter;stroke-dasharray:none;fill-opacity:1;stroke-miterlimit:4;stroke-opacity:1"
         id="path833" />
      <path
         inkscape:connector-curvature="0"
         d="m 725.7421,139.217 c 41.0977,8.8828 68.0023,53.0463 44.1668,90.6269 -9.7068,15.3039 -72.8267,105.7039 -121.9934,172.0123 v -13.675 c 34.8101,-78.3214 64.6935,-154.7627 73.8198,-169.8016 12.1691,-20.0516 15.3793,-53.3374 4.0068,-79.1626 z"
         style="fill:#ffcc00;fill-rule:evenodd;stroke:#000000;stroke-width:5;stroke-linecap:butt;stroke-linejoin:miter;stroke-dasharray:none;fill-opacity:1;stroke-miterlimit:4;stroke-opacity:1"
         id="path835" />
      <path
         inkscape:connector-curvature="0"
         d="m 637.9923,381.6539 c 24.3441,-136.0432 82.9965,-259.2429 -31.1844,-265.2136 124.686,-53.4724 142.0814,57.1967 114.9274,101.9393 -9.1263,15.0389 -39.0097,91.4813 -73.8198,169.803 v -6.5287 z"
         style="fill:#ffcc00;fill-rule:evenodd;stroke:#000000;stroke-width:5;stroke-linecap:butt;stroke-linejoin:miter;stroke-dasharray:none;fill-opacity:1;stroke-miterlimit:4;stroke-opacity:1"
         id="path837" />
      <path
         inkscape:connector-curvature="0"
         d="m 663.4466,266.0638 c 13.4833,5.704 22.3717,19.6194 23.5519,33.2473"
         style="fill:#ffcc00;fill-rule:evenodd;stroke:#000000;stroke-width:4;stroke-linecap:butt;stroke-linejoin:miter;stroke-dasharray:none;fill-opacity:1;stroke-opacity:1;stroke-miterlimit:4"
         id="path839" />
      <path
         inkscape:connector-curvature="0"
         d="m 694.6667,281.7585 c 14.3684,5.704 17.9141,17.6169 15.8487,33.6052"
         style="fill:#ffcc00;fill-rule:evenodd;stroke:#000000;stroke-width:4;stroke-linecap:butt;stroke-linejoin:miter;stroke-dasharray:none;fill-opacity:1;stroke-opacity:1;stroke-miterlimit:4"
         id="path841" />
      <path
         inkscape:connector-curvature="0"
         d="m 718.6901,303.5633 c 14.3684,5.7039 9.4982,26.3035 7.4328,33.2926"
         style="fill:#ffcc00;fill-rule:evenodd;stroke:#000000;stroke-width:4;stroke-linecap:butt;stroke-linejoin:miter;stroke-dasharray:none;fill-opacity:1;stroke-opacity:1;stroke-miterlimit:4"
         id="path843" />
      <path
         inkscape:connector-curvature="0"
         d="m 732.802,331.1706 c 11.4179,8.0643 3.5003,26.9171 1.6521,31.9809"
         style="fill:#ffcc00;fill-rule:evenodd;stroke:#000000;stroke-width:4;stroke-linecap:butt;stroke-linejoin:miter;stroke-dasharray:none;fill-opacity:1;stroke-opacity:1;stroke-miterlimit:4"
         id="path845" />
      <path
         inkscape:connector-curvature="0"
         d="m 740.9518,359.5255 c 7.8771,6.4416 -3.4292,26.8139 -5.1178,30.0267"
         style="fill:#ffcc00;fill-rule:evenodd;stroke:#000000;stroke-width:4;stroke-linecap:butt;stroke-linejoin:miter;stroke-dasharray:none;fill-opacity:1;stroke-opacity:1;stroke-miterlimit:4"
         id="path847" />
      <path
         inkscape:connector-curvature="0"
         d="m 740.8067,387.5721 c 7.8772,6.4416 -9.3467,30.2178 -15.4611,33.5781"
         style="fill:#ffcc00;fill-rule:evenodd;stroke:#000000;stroke-width:4;stroke-linecap:butt;stroke-linejoin:miter;stroke-dasharray:none;fill-opacity:1;stroke-opacity:1;stroke-miterlimit:4"
         id="path849" />
      <path
         inkscape:connector-curvature="0"
         d="m 731.8522,420.6744 c 0.1875,9.6621 -13.5611,15.2367 -16.926,17.3368"
         style="fill:#ffcc00;fill-rule:evenodd;stroke:#000000;stroke-width:4;stroke-linecap:butt;stroke-linejoin:miter;stroke-dasharray:none;fill-opacity:1;stroke-opacity:1;stroke-miterlimit:4"
         id="path851" />
      <path
         inkscape:connector-curvature="0"
         d="m 718.977,438.732 c 0.1875,7.1542 -17.2454,13.4436 -21.0529,13.0357"
         style="fill:#ffcc00;fill-rule:evenodd;stroke:#000000;stroke-width:4;stroke-linecap:butt;stroke-linejoin:miter;stroke-dasharray:none;fill-opacity:1;stroke-opacity:1;stroke-miterlimit:4"
         id="path853" />
      <path
         inkscape:connector-curvature="0"
         d="m 702.1988,453.9459 c -1.2877,5.0888 -17.4261,8.0615 -21.2335,7.6536"
         style="fill:#ffcc00;fill-rule:evenodd;stroke:#000000;stroke-width:4;stroke-linecap:butt;stroke-linejoin:miter;stroke-dasharray:none;fill-opacity:1;stroke-opacity:1;stroke-miterlimit:4"
         id="path855" />
      <path
         inkscape:connector-curvature="0"
         d="m 684.2544,463.0115 c -1.2877,5.0888 -15.8358,2.154 -19.6433,1.7461"
         style="fill:#ffcc00;fill-rule:evenodd;stroke:#000000;stroke-width:4;stroke-linecap:butt;stroke-linejoin:miter;stroke-dasharray:none;fill-opacity:1;stroke-opacity:1;stroke-miterlimit:4"
         id="path857" />
    </g>
    <g
       id="Layer1003"
       transform="translate(-1242.9635,417.48391)"
       style="fill:#ffcc00;fill-opacity:1">
      <path
         inkscape:connector-curvature="0"
         d="m 486.1276,437.5689 c -44.7123,31.5045 -86.8919,67.1532 -106.9888,73.5923 -0.7437,0.2383 -1.4892,0.3919 -2.2326,0.4672 1.2435,16.9857 12.7231,27.1769 22.4738,20.4467 19.1464,-13.2153 51.445,-46.8709 86.7476,-84.7986 z"
         style="fill:#ffcc00;fill-rule:evenodd;stroke:#000000;stroke-width:5;stroke-linecap:butt;stroke-linejoin:miter;stroke-dasharray:none;fill-opacity:1;stroke-miterlimit:4;stroke-opacity:1"
         id="path860" />
      <path
         inkscape:connector-curvature="0"
         d="m 486.1276,431.914 c -48.2701,19.4822 -92.903,40.7715 -113.195,47.2723 -4.2251,1.3535 -9.7936,0.6334 -15.1524,-1.8317 -3.1942,19.6015 9.3424,37.6562 21.3586,33.8066 20.0969,-6.4387 62.2769,-42.0882 106.9888,-73.5926 z"
         style="fill:#ffcc00;fill-rule:evenodd;stroke:#000000;stroke-width:5;stroke-linecap:butt;stroke-linejoin:miter;stroke-dasharray:none;fill-opacity:1;stroke-miterlimit:4;stroke-opacity:1"
         id="path862" />
      <path
         inkscape:connector-curvature="0"
         d="m 339.9918,448.2449 c -1.7431,22.0108 20.9832,34.7721 32.9408,30.9414 20.292,-6.5008 64.9249,-27.7901 113.195,-47.2723 v -3.4439 c -57.2882,7.1381 -115.0732,19.8676 -136.6072,22.6049 -3.1556,0.4012 -6.5058,-0.6587 -9.5286,-2.8301 z"
         style="fill:#ffcc00;fill-rule:evenodd;stroke:#000000;stroke-width:5;stroke-linecap:butt;stroke-linejoin:miter;stroke-dasharray:none;fill-opacity:1;stroke-miterlimit:4;stroke-opacity:1"
         id="path864" />
      <path
         inkscape:connector-curvature="0"
         d="m 486.1276,424.8584 c -42.7669,-1.7629 -125.1183,-1.101 -149.631,-18.0095 -15.8434,23.4015 0.1996,45.8561 13.0238,44.2261 21.5336,-2.7373 79.3187,-15.4679 136.6072,-22.6063 z"
         style="fill:#ffcc00;fill-rule:evenodd;stroke:#000000;stroke-width:5;stroke-linecap:butt;stroke-linejoin:miter;stroke-dasharray:none;fill-opacity:1;stroke-miterlimit:4;stroke-opacity:1"
         id="path866" />
      <path
         inkscape:connector-curvature="0"
         d="m 325.3923,352.2552 c -10.3708,16.9028 -2.0093,37.8656 6.0526,49.75 14.8513,21.8923 108.1762,20.9382 154.6827,22.8542 v -4.0054 c -62.1298,-18.353 -136.2689,-49.6299 -152.0594,-59.0174 -2.4279,-1.4438 -5.7371,-4.8669 -8.6759,-9.5814 z"
         style="fill:#ffcc00;fill-rule:evenodd;stroke:#000000;stroke-width:5;stroke-linecap:butt;stroke-linejoin:miter;stroke-dasharray:none;fill-opacity:1;stroke-miterlimit:4;stroke-opacity:1"
         id="path868" />
      <path
         inkscape:connector-curvature="0"
         d="M 486.1276,414.1214 C 423.9357,381.0431 352.362,333.9122 337.6164,322.9698 c -2.7187,-2.0172 -6.9391,-8.3762 -10.2926,-16.7731 -19.584,23.4936 -1.4299,50.7798 6.7444,55.6399 15.7905,9.3875 89.9296,40.6644 152.0594,59.0174 z"
         style="fill:#ffcc00;fill-rule:evenodd;stroke:#000000;stroke-width:5;stroke-linecap:butt;stroke-linejoin:miter;stroke-dasharray:none;fill-opacity:1;stroke-miterlimit:4;stroke-opacity:1"
         id="path870" />
      <path
         inkscape:connector-curvature="0"
         d="m 332.6708,253.1671 c -22.7728,23.0447 -2.8037,64.052 4.9456,69.8027 14.7456,10.9424 86.3193,58.0733 148.5112,91.1516 v -2.9677 C 426.3683,357.0136 356.6903,286.2412 342.6284,274.0021 c -3.4499,-3.0031 -7.3392,-10.886 -9.9576,-20.835 z"
         style="fill:#ffcc00;fill-rule:evenodd;stroke:#000000;stroke-width:5;stroke-linecap:butt;stroke-linejoin:miter;stroke-dasharray:none;fill-opacity:1;stroke-miterlimit:4;stroke-opacity:1"
         id="path872" />
      <path
         inkscape:connector-curvature="0"
         d="M 486.1276,401.5605 C 436.797,335.3474 373.9149,245.7811 364.2031,230.5537 c -9.526,-14.9364 -10.9856,-30.9104 -6.6998,-45.2981 -42.9294,13.8729 -26.4335,78.6861 -14.8749,88.7465 14.0619,12.2391 83.7402,83.0126 143.4992,137.153 z"
         style="fill:#ffcc00;fill-rule:evenodd;stroke:#000000;stroke-width:5;stroke-linecap:butt;stroke-linejoin:miter;stroke-dasharray:none;fill-opacity:1;stroke-miterlimit:4;stroke-opacity:1"
         id="path874" />
      <path
         inkscape:connector-curvature="0"
         d="m 408.6164,139.9268 c -41.3266,8.8827 -68.3813,53.0463 -44.4133,90.6269 9.7122,15.2267 72.5942,104.7948 121.9245,171.0078 v -14.3476 c -34.6829,-77.7327 -64.3702,-153.1932 -73.4822,-168.1245 -12.237,-20.0516 -15.4651,-53.3374 -4.029,-79.1626 z"
         style="fill:#ffcc00;fill-rule:evenodd;stroke:#000000;stroke-width:5;stroke-linecap:butt;stroke-linejoin:miter;stroke-dasharray:none;fill-opacity:1;stroke-miterlimit:4;stroke-opacity:1"
         id="path876" />
      <path
         inkscape:connector-curvature="0"
         d="M 496.7278,381.6539 C 472.1711,245.8926 413.5955,123.1105 528.2129,117.1501 402.8325,63.6776 385.3403,174.3468 412.6454,219.0894 c 9.1113,14.9313 38.799,90.3932 73.4822,168.127 v -5.5625 z"
         style="fill:#ffcc00;fill-rule:evenodd;stroke:#000000;stroke-width:5;stroke-linecap:butt;stroke-linejoin:miter;stroke-dasharray:none;fill-opacity:1;stroke-miterlimit:4;stroke-opacity:1"
         id="path878" />
      <path
         inkscape:connector-curvature="0"
         d="m 471.2584,266.7736 c -13.5579,5.7039 -22.496,19.6194 -23.683,33.2473"
         style="fill:#ffcc00;fill-rule:evenodd;stroke:#000000;stroke-width:4;stroke-linecap:butt;stroke-linejoin:miter;stroke-dasharray:none;fill-opacity:1;stroke-miterlimit:4;stroke-opacity:1"
         id="path880" />
      <path
         inkscape:connector-curvature="0"
         d="m 439.8643,282.4683 c -14.448,5.7039 -18.0133,17.6169 -15.9365,33.6052"
         style="fill:#ffcc00;fill-rule:evenodd;stroke:#000000;stroke-width:4;stroke-linecap:butt;stroke-linejoin:miter;stroke-dasharray:none;fill-opacity:1;stroke-miterlimit:4;stroke-opacity:1"
         id="path882" />
      <path
         inkscape:connector-curvature="0"
         d="m 415.7077,304.2731 c -14.4487,5.7039 -9.5514,26.3034 -7.4742,33.2926"
         style="fill:#ffcc00;fill-rule:evenodd;stroke:#000000;stroke-width:4;stroke-linecap:butt;stroke-linejoin:miter;stroke-dasharray:none;fill-opacity:1;stroke-miterlimit:4;stroke-opacity:1"
         id="path884" />
      <path
         inkscape:connector-curvature="0"
         d="m 401.5169,331.8804 c -11.4815,8.0643 -3.5196,26.9171 -1.6614,31.9809"
         style="fill:#ffcc00;fill-rule:evenodd;stroke:#000000;stroke-width:4;stroke-linecap:butt;stroke-linejoin:miter;stroke-dasharray:none;fill-opacity:1;stroke-miterlimit:4;stroke-opacity:1"
         id="path886" />
      <path
         inkscape:connector-curvature="0"
         d="m 393.3218,360.2353 c -7.9212,6.4415 3.4485,26.8139 5.1463,30.0266"
         style="fill:#ffcc00;fill-rule:evenodd;stroke:#000000;stroke-width:4;stroke-linecap:butt;stroke-linejoin:miter;stroke-dasharray:none;fill-opacity:1;stroke-miterlimit:4;stroke-opacity:1"
         id="path888" />
      <path
         inkscape:connector-curvature="0"
         d="m 393.4675,388.2819 c -7.9208,6.4416 9.3989,30.2178 15.5475,33.578"
         style="fill:#ffcc00;fill-rule:evenodd;stroke:#000000;stroke-width:4;stroke-linecap:butt;stroke-linejoin:miter;stroke-dasharray:none;fill-opacity:1;stroke-miterlimit:4;stroke-opacity:1"
         id="path890" />
      <path
         inkscape:connector-curvature="0"
         d="m 402.4717,421.3841 c -0.1883,9.6622 13.6372,15.2368 17.0206,17.3368"
         style="fill:#ffcc00;fill-rule:evenodd;stroke:#000000;stroke-width:4;stroke-linecap:butt;stroke-linejoin:miter;stroke-dasharray:none;fill-opacity:1;stroke-miterlimit:4;stroke-opacity:1"
         id="path892" />
      <path
         inkscape:connector-curvature="0"
         d="m 415.4191,439.4418 c -0.1883,7.1542 17.3414,13.4436 21.1704,13.0356"
         style="fill:#ffcc00;fill-rule:evenodd;stroke:#000000;stroke-width:4;stroke-linecap:butt;stroke-linejoin:miter;stroke-dasharray:none;fill-opacity:1;stroke-miterlimit:4;stroke-opacity:1"
         id="path894" />
      <path
         inkscape:connector-curvature="0"
         d="m 432.2904,454.6557 c 1.2953,5.0888 17.5233,8.0615 21.3519,7.6536"
         style="fill:#ffcc00;fill-rule:evenodd;stroke:#000000;stroke-width:4;stroke-linecap:butt;stroke-linejoin:miter;stroke-dasharray:none;fill-opacity:1;stroke-miterlimit:4;stroke-opacity:1"
         id="path896" />
      <path
         inkscape:connector-curvature="0"
         d="m 450.3352,463.7213 c 1.2949,5.0888 15.9237,2.154 19.7523,1.746"
         style="fill:#ffcc00;fill-rule:evenodd;stroke:#000000;stroke-width:4;stroke-linecap:butt;stroke-linejoin:miter;stroke-dasharray:none;fill-opacity:1;stroke-miterlimit:4;stroke-opacity:1"
         id="path898" />
    </g>
    <g
       id="Layer1004"
       transform="translate(-1242.9635,417.48391)"
       style="fill:#ffcc00;fill-opacity:1">
      <path
         inkscape:connector-curvature="0"
         d="m 603.0651,554.4085 83.2444,171.7427 c 7.9207,24.4374 -15.5097,33.5376 -25.8063,23.5168 -3.6306,23.5455 -15.007,27.5127 -32.8,15.2579 -8.3705,18.0266 -20.3984,20.1327 -35.4562,9.0474 -15.6908,20.8603 -32.0939,22.1109 -49.3574,-0.3033 -15.4936,13.625 -26.2424,6.7345 -35.0615,-8.4969 -14.0945,9.2238 -31.6284,8.9466 -32.6815,-14.5742 -11.4142,7.0003 -34.7361,3.2717 -27.9605,-26.4495 L 532.4784,555.174 c 23.0907,13.2039 48.7322,11.8679 70.5867,-0.7655 z"
         style="fill:#ffcc00;fill-rule:evenodd;stroke:#000000;stroke-width:5;stroke-linecap:butt;stroke-linejoin:miter;stroke-dasharray:none;fill-opacity:1;stroke-miterlimit:4;stroke-opacity:1"
         id="path901" />
      <path
         inkscape:connector-curvature="0"
         d="M 594.6124,558.6493 660.5032,749.668"
         style="fill:#ffcc00;fill-rule:evenodd;stroke:#000000;stroke-width:5;stroke-linecap:butt;stroke-linejoin:miter;stroke-dasharray:none;fill-opacity:1;stroke-miterlimit:4;stroke-opacity:1"
         id="path903" />
      <path
         inkscape:connector-curvature="0"
         d="m 585.1421,561.9753 42.5611,202.9506"
         style="fill:#ffcc00;fill-rule:evenodd;stroke:#000000;stroke-width:5;stroke-linecap:butt;stroke-linejoin:miter;stroke-dasharray:none;fill-opacity:1;stroke-miterlimit:4;stroke-opacity:1"
         id="path905" />
      <path
         inkscape:connector-curvature="0"
         d="M 575.2095,563.981 592.247,773.9733"
         style="fill:#ffcc00;fill-rule:evenodd;stroke:#000000;stroke-width:5;stroke-linecap:butt;stroke-linejoin:miter;stroke-dasharray:none;fill-opacity:1;stroke-miterlimit:4;stroke-opacity:1"
         id="path907" />
      <path
         inkscape:connector-curvature="0"
         d="M 561.4945,564.2871 542.8896,773.67"
         style="fill:#ffcc00;fill-rule:evenodd;stroke:#000000;stroke-width:5;stroke-linecap:butt;stroke-linejoin:miter;stroke-dasharray:none;fill-opacity:1;stroke-miterlimit:4;stroke-opacity:1"
         id="path909" />
      <path
         inkscape:connector-curvature="0"
         d="M 551.5512,562.7469 507.8281,765.1731"
         style="fill:#ffcc00;fill-rule:evenodd;stroke:#000000;stroke-width:5;stroke-linecap:butt;stroke-linejoin:miter;stroke-dasharray:none;fill-opacity:1;stroke-miterlimit:4;stroke-opacity:1"
         id="path911" />
      <path
         inkscape:connector-curvature="0"
         d="M 541.9655,559.7527 475.1466,750.5989"
         style="fill:#ffcc00;fill-rule:evenodd;stroke:#000000;stroke-width:5;stroke-linecap:butt;stroke-linejoin:miter;stroke-dasharray:none;fill-opacity:1;stroke-miterlimit:4;stroke-opacity:1"
         id="path913" />
    </g>
    <path
       inkscape:connector-curvature="0"
       d="m -811.4825,1051.9773 c 55.52811,-20.3067 111.4844,-28.4838 167.89486,-23.795 35.02981,2.9116 70.23475,10.7845 105.62104,23.795 v 29.8006 c -93.0973,-30.3307 -184.3529,-28.3357 -273.5159,-0.4426 z"
       style="fill:#ffffff;fill-opacity:1;fill-rule:evenodd;stroke:#000000;stroke-width:3.02362205;stroke-linecap:butt;stroke-linejoin:miter;stroke-dasharray:none;stroke-miterlimit:4;stroke-opacity:1"
       id="path916"
       sodipodi:nodetypes="cscccc" />
    <g
       id="Layer1005"
       transform="translate(-1242.9635,417.48391)"
       style="fill:#ffcc00;fill-opacity:1">
      <path
         inkscape:connector-curvature="0"
         d="m 673.8686,586.547 15.4904,-17.2607 c 0.7908,11.0467 10.5862,19.14 6.8041,26.3506 0.8505,-3.0584 7.0491,3.8021 3.5649,8.9063 0.4308,1.4428 0.9466,-0.5715 2.333,0.4583 1.0648,0.7905 1.2234,3.7886 2.6976,5.0299 3.2435,2.7308 8.3266,4.3297 11.4211,7.2817 5.4503,5.1995 8.4919,14.1983 11.8282,20.2577 8.0672,14.6502 4.1529,31.1472 -9.8204,28.7664 -3.6331,3.0709 -7.6832,2.8552 -8.8384,-0.2058 -5.6014,8.1166 -11.7854,7.9608 -18.3673,2.1458 2.7162,-1.5467 7.4981,-2.9466 8.8863,-7.8861 1.3881,-4.9399 -3.1242,-16.6663 -0.5555,-21.7537 -2.3447,-2.8673 -3.2642,-9.4553 -6.2051,-12.0112 -4.1622,-3.6171 -7.04521,1.26308 -7.67131,-4.19572 0.1196,4.459 -5.49684,0.0557 -8.77354,0.92725 -8.0104,-2.3411 -16.89225,-4.66239 -24.88405,-6.48139 2.4208,-10.7466 9.3665,-13.65554 23.4045,-4.22414 -3.8,-6.8205 2.0372,-10.1426 5.9883,-6.5623 -3.0338,-1.9282 -2.6273,-7.4371 1.477,-7.9175 -3.4663,0.1229 -6.344,-7.7747 -8.7798,-11.6254 z"
         style="fill:#ffcc00;fill-opacity:1;fill-rule:evenodd;stroke:#000000;stroke-width:5;stroke-linecap:butt;stroke-linejoin:miter;stroke-miterlimit:4;stroke-dasharray:none;stroke-opacity:1"
         id="path926"
         sodipodi:nodetypes="ccccccscccccccccccccc" />
      <path
         inkscape:connector-curvature="0"
         d="m 713.1109,626.5269 c 5.7475,7.1867 14.9442,22.7943 5.0766,39.8103"
         style="fill:#ffcc00;fill-rule:evenodd;stroke:#000000;stroke-width:1.88999999;stroke-linecap:butt;stroke-linejoin:miter;stroke-dasharray:none;fill-opacity:1;stroke-opacity:1"
         id="path928" />
      <path
         inkscape:connector-curvature="0"
         d="m 703.1494,624.6123 c 5.7475,7.1867 14.0019,28.3388 6.1997,41.5191"
         style="fill:#ffcc00;fill-rule:evenodd;stroke:#000000;stroke-width:1.88999999;stroke-linecap:butt;stroke-linejoin:miter;stroke-dasharray:none;fill-opacity:1;stroke-opacity:1"
         id="path930" />
    </g>
    <path
       inkscape:connector-curvature="0"
       d="m -597.4573,993.05531 c 7.8628,-6.0869 25.7315,8.59119 25.0578,22.88419 -11.4835,2.6509 -31.9766,-14.4723 -25.0578,-22.88419 z"
       style="fill:#ffcc00;fill-rule:evenodd;stroke:#000000;stroke-width:3;stroke-linecap:butt;stroke-linejoin:miter;stroke-dasharray:none;fill-opacity:1;stroke-opacity:1;stroke-miterlimit:4"
       id="path933" />
    <path
       inkscape:connector-curvature="0"
       d="m -598.584,995.13821 2.3908,-2.8488 c 7.1238,6.3323 13.6676,12.75669 19.2775,19.32829 -6.5065,-6.3512 -13.6832,-11.89969 -21.6683,-16.47949 z"
       style="fill:#000000;fill-rule:evenodd;stroke:#000000;stroke-width:1.5;stroke-linecap:butt;stroke-linejoin:miter;stroke-dasharray:none;fill-opacity:1;stroke-opacity:1;stroke-miterlimit:4"
       id="path935" />
    <path
       inkscape:connector-curvature="0"
       d="m -578.0019,984.05331 c 7.8629,-6.0869 25.7315,8.5912 25.0578,22.88419 -11.4835,2.6509 -31.9766,-14.47229 -25.0578,-22.88419 z"
       style="fill:#ffcc00;fill-rule:evenodd;stroke:#000000;stroke-width:3;stroke-linecap:butt;stroke-linejoin:miter;stroke-dasharray:none;fill-opacity:1;stroke-opacity:1;stroke-miterlimit:4"
       id="path937" />
    <path
       inkscape:connector-curvature="0"
       d="m -579.1286,986.13611 2.3908,-2.8487 c 7.1238,6.3322 13.6676,12.7567 19.2775,19.32819 -6.5065,-6.35109 -13.6832,-11.89969 -21.6683,-16.47949 z"
       style="fill:#000000;fill-rule:evenodd;stroke:#000000;stroke-width:1.5;stroke-linecap:butt;stroke-linejoin:miter;stroke-dasharray:none;fill-opacity:1;stroke-opacity:1;stroke-miterlimit:4"
       id="path939" />
    <path
       inkscape:connector-curvature="0"
       d="m -558.3265,965.89311 c 9.6925,-2.2201 19.7405,18.607 13.1239,31.2944 -11.5347,-2.4194 -22.9368,-26.5682 -13.1239,-31.2944 z"
       style="fill:#ffcc00;fill-rule:evenodd;stroke:#000000;stroke-width:3;stroke-linecap:butt;stroke-linejoin:miter;stroke-dasharray:none;fill-opacity:1;stroke-opacity:1;stroke-miterlimit:4"
       id="path941" />
    <path
       inkscape:connector-curvature="0"
       d="m -560.224,967.30981 3.3663,-1.5807 c 3.8043,8.7392 7.0428,17.3186 9.3725,25.6387 -3.2356,-8.4969 -7.4171,-16.5473 -12.7388,-24.058 z"
       style="fill:#000000;fill-rule:evenodd;stroke:#000000;stroke-width:1.5;stroke-linecap:butt;stroke-linejoin:miter;stroke-dasharray:none;fill-opacity:1;stroke-opacity:1;stroke-miterlimit:4"
       id="path943" />
    <path
       inkscape:connector-curvature="0"
       d="m -583.4697,987.58141 c 8.8359,-4.5612 23.7487,13.11169 20.4963,27.04609 -11.774,0.5262 -28.825,-20.02729 -20.4963,-27.04609 z"
       style="fill:#ffcc00;fill-rule:evenodd;stroke:#000000;stroke-width:3;stroke-linecap:butt;stroke-linejoin:miter;stroke-dasharray:none;fill-opacity:1;stroke-opacity:1;stroke-miterlimit:4"
       id="path945" />
    <path
       inkscape:connector-curvature="0"
       d="m -584.955,989.42571 2.8673,-2.3683 c 5.8586,7.5182 11.1296,15.02209 15.4557,22.50129 -5.2477,-7.4249 -11.3003,-14.18229 -18.323,-20.13299 z"
       style="fill:#000000;fill-rule:evenodd;stroke:#000000;stroke-width:1.5;stroke-linecap:butt;stroke-linejoin:miter;stroke-dasharray:none;fill-opacity:1;stroke-opacity:1;stroke-miterlimit:4"
       id="path947" />
    <path
       inkscape:connector-curvature="0"
       d="m -572.148,972.60401 c 8.8359,-4.5612 23.7487,13.1117 20.4963,27.0461 -11.774,0.52619 -28.825,-20.0273 -20.4963,-27.0461 z"
       style="fill:#ffcc00;fill-rule:evenodd;stroke:#000000;stroke-width:3;stroke-linecap:butt;stroke-linejoin:miter;stroke-dasharray:none;fill-opacity:1;stroke-opacity:1;stroke-miterlimit:4"
       id="path949" />
    <path
       inkscape:connector-curvature="0"
       d="m -573.6333,974.44831 2.8673,-2.3683 c 5.8586,7.5181 11.1296,15.022 15.4558,22.5013 -5.2478,-7.425 -11.3003,-14.1823 -18.3231,-20.133 z"
       style="fill:#000000;fill-rule:evenodd;stroke:#000000;stroke-width:1.5;stroke-linecap:butt;stroke-linejoin:miter;stroke-dasharray:none;fill-opacity:1;stroke-opacity:1;stroke-miterlimit:4"
       id="path951" />
    <path
       inkscape:connector-curvature="0"
       d="m -611.7164,972.60011 c 10.3469,-6.2551 29.882,13.969 27.0743,31.13969 -14.2419,1.5988 -36.6054,-21.94449 -27.0743,-31.13969 z"
       style="fill:#ffcc00;fill-rule:evenodd;stroke:#000000;stroke-width:1.88999999;stroke-linecap:butt;stroke-linejoin:miter;stroke-dasharray:none;fill-opacity:1;stroke-opacity:1"
       id="path953" />
    <path
       inkscape:connector-curvature="0"
       d="m -613.3689,974.95911 3.2856,-3.1074 c 7.7222,8.6434 14.7299,17.3161 20.5882,26.0377 -6.9724,-8.5809 -14.8667,-16.2845 -23.8738,-22.9303 z"
       style="fill:#ffcc00;fill-rule:evenodd;stroke:#000000;stroke-width:1.5;stroke-linecap:butt;stroke-linejoin:miter;stroke-dasharray:none;fill-opacity:1;stroke-opacity:1;stroke-miterlimit:4"
       id="path955" />
    <path
       inkscape:connector-curvature="0"
       d="m -572.9217,948.72851 c 10.3469,-6.2551 29.882,13.969 27.0743,31.1397 -14.2419,1.5989 -36.6054,-21.9444 -27.0743,-31.1397 z"
       style="fill:#ffcc00;fill-rule:evenodd;stroke:#000000;stroke-width:3;stroke-linecap:butt;stroke-linejoin:miter;stroke-dasharray:none;fill-opacity:1;stroke-opacity:1;stroke-miterlimit:4"
       id="path957" />
    <path
       inkscape:connector-curvature="0"
       d="m -574.5742,951.08751 3.2857,-3.1074 c 7.7221,8.6434 14.7298,17.3161 20.5881,26.0377 -6.9724,-8.5809 -14.8667,-16.2844 -23.8738,-22.9303 z"
       style="fill:#000000;fill-rule:evenodd;stroke:#000000;stroke-width:0.63010001;stroke-linecap:butt;stroke-linejoin:miter;stroke-dasharray:none;fill-opacity:1;stroke-opacity:1"
       id="path959" />
    <path
       inkscape:connector-curvature="0"
       d="m -586.3517,959.08331 c 10.3469,-6.2551 29.882,13.969 27.0743,31.1397 -14.2419,1.5988 -36.6054,-21.9445 -27.0743,-31.1397 z"
       style="fill:#ffcc00;fill-rule:evenodd;stroke:#000000;stroke-width:1.88999999;stroke-linecap:butt;stroke-linejoin:miter;stroke-dasharray:none;fill-opacity:1;stroke-opacity:1"
       id="path961" />
    <path
       inkscape:connector-curvature="0"
       d="m -588.0042,961.44231 3.2857,-3.1074 c 7.7221,8.6434 14.7298,17.3161 20.5881,26.0377 -6.9724,-8.5809 -14.8667,-16.2845 -23.8738,-22.9303 z"
       style="fill:#ffcc00;fill-rule:evenodd;stroke:#000000;stroke-width:1.5;stroke-linecap:butt;stroke-linejoin:miter;stroke-dasharray:none;fill-opacity:1;stroke-opacity:1;stroke-miterlimit:4"
       id="path963" />
    <path
       inkscape:connector-curvature="0"
       d="m -598.1453,968.24821 c 10.3469,-6.2551 29.882,13.969 27.0743,31.1397 -14.2419,1.59889 -36.6054,-21.9444 -27.0743,-31.1397 z"
       style="fill:#ffcc00;fill-rule:evenodd;stroke:#000000;stroke-width:1.88999999;stroke-linecap:butt;stroke-linejoin:miter;stroke-dasharray:none;fill-opacity:1;stroke-opacity:1"
       id="path965" />
    <path
       inkscape:connector-curvature="0"
       d="m -599.7978,970.60721 3.2856,-3.1074 c 7.7222,8.6434 14.7299,17.3161 20.5881,26.0377 -6.9723,-8.5809 -14.8666,-16.2844 -23.8737,-22.9303 z"
       style="fill:#000000;fill-rule:evenodd;stroke:#000000;stroke-width:1.5;stroke-linecap:butt;stroke-linejoin:miter;stroke-dasharray:none;fill-opacity:1;stroke-opacity:1;stroke-miterlimit:4"
       id="path967" />
    <path
       inkscape:connector-curvature="0"
       d="m -632.8654,969.20161 c 10.118,-11.0685 38.0046,5.3302 39.5024,26.3492 -15.8494,7.07269 -47.8811,-12.1555 -39.5024,-26.3492 z"
       style="fill:#ffcc00;fill-rule:evenodd;stroke:#000000;stroke-width:3;stroke-linecap:butt;stroke-linejoin:miter;stroke-dasharray:none;fill-opacity:1;stroke-opacity:1;stroke-miterlimit:4"
       id="path969" />
    <path
       inkscape:connector-curvature="0"
       d="m -634.1081,972.55291 2.9056,-4.8198 c 11.2013,7.2378 21.5936,14.7709 30.6849,22.7817 -10.3269,-7.4392 -21.4675,-13.52 -33.5905,-17.9619 z"
       style="fill:#000000;fill-rule:evenodd;stroke:#000000;stroke-width:1.5;stroke-linecap:butt;stroke-linejoin:miter;stroke-dasharray:none;fill-opacity:1;stroke-opacity:1;stroke-miterlimit:4"
       id="path971" />
    <path
       inkscape:connector-curvature="0"
       d="m -616.572,955.89411 c 10.9096,-10.2891 37.5059,8.129 37.4434,29.2011 -16.3294,5.8801 -46.8498,-15.6664 -37.4434,-29.2011 z"
       style="fill:#ffcc00;fill-rule:evenodd;stroke:#000000;stroke-width:3;stroke-linecap:butt;stroke-linejoin:miter;stroke-dasharray:none;fill-opacity:1;stroke-opacity:1;stroke-miterlimit:4"
       id="path973" />
    <path
       inkscape:connector-curvature="0"
       d="m -618.0594,959.14431 3.2545,-4.5915 c 10.6349,8.0472 20.441,16.3287 28.9144,24.9907 -9.4286,-7.7272 -20.302,-14.9199 -32.1689,-20.3992 z"
       style="fill:#000000;fill-rule:evenodd;stroke:#000000;stroke-width:1.5;stroke-linecap:butt;stroke-linejoin:miter;stroke-dasharray:none;fill-opacity:1;stroke-opacity:1;stroke-miterlimit:4"
       id="path975" />
    <path
       inkscape:connector-curvature="0"
       d="m -581.2425,932.41581 c 11.8657,-9.1696 36.5278,11.7679 34.3989,32.7325 -16.8275,4.2501 -45.0874,-20.1859 -34.3989,-32.7325 z"
       style="fill:#ffcc00;fill-rule:evenodd;stroke:#000000;stroke-width:3;stroke-linecap:butt;stroke-linejoin:miter;stroke-dasharray:none;fill-opacity:1;stroke-opacity:1;stroke-miterlimit:4"
       id="path977" />
    <path
       inkscape:connector-curvature="0"
       d="m -583.0418,935.50421 3.6893,-4.25 c 9.7943,9.0513 18.7409,18.2548 26.3238,27.7058 -8.8981,-9.0999 -18.8314,-17.001 -30.0131,-23.4558 z"
       style="fill:#000000;fill-rule:evenodd;stroke:#000000;stroke-width:1.5;stroke-linecap:butt;stroke-linejoin:miter;stroke-dasharray:none;fill-opacity:1;stroke-opacity:1;stroke-miterlimit:4"
       id="path979" />
    <path
       inkscape:connector-curvature="0"
       d="m -597.8021,945.43461 c 11.8658,-9.1695 36.5279,11.7679 34.3989,32.7326 -16.8274,4.25 -45.0873,-20.1859 -34.3989,-32.7326 z"
       style="fill:#ffcc00;fill-rule:evenodd;stroke:#000000;stroke-width:3;stroke-linecap:butt;stroke-linejoin:miter;stroke-dasharray:none;fill-opacity:1;stroke-opacity:1;stroke-miterlimit:4"
       id="path981" />
    <path
       inkscape:connector-curvature="0"
       d="m -599.6013,948.52311 3.6892,-4.2501 c 9.7944,9.0513 18.741,18.2548 26.3239,27.7059 -8.8981,-9.0999 -18.8314,-17.0011 -30.0131,-23.4558 z"
       style="fill:#000000;fill-rule:evenodd;stroke:#000000;stroke-width:1.5;stroke-linecap:butt;stroke-linejoin:miter;stroke-dasharray:none;fill-opacity:1;stroke-opacity:1;stroke-miterlimit:4"
       id="path983" />
    <path
       inkscape:connector-curvature="0"
       d="m -621.7783,957.91591 c 6.867,7.6861 11.5914,18.1791 10.6045,28.9279 -6.9681,2.0789 -15.6001,0.1168 -23.4147,-3.9961 l -5.3099,-10.9553 -0.2758,0.1568 c 6.5223,-3.7364 12.7102,-8.4744 18.3959,-14.1333 z m -21.5451,15.8458 c 0.2254,-0.1161 0.4498,-0.2333 0.6744,-0.3519 -0.2246,0.1183 -0.449,0.2358 -0.6744,0.3519 z m 0.9459,-0.4954 c 0.2894,-0.154 0.578,-0.3101 0.8659,-0.468 -0.2883,0.1575 -0.5765,0.3144 -0.8659,0.468 z m 1.0627,-0.5759 c 0.2233,-0.1232 0.4462,-0.2475 0.6687,-0.3729 -0.2225,0.125 -0.4454,0.25 -0.6687,0.3729 z"
       style="fill:#ffcc00;fill-rule:evenodd;stroke:#000000;stroke-width:3;stroke-linecap:butt;stroke-linejoin:miter;stroke-dasharray:none;fill-opacity:1;stroke-opacity:1;stroke-miterlimit:4"
       id="path985" />
    <path
       inkscape:connector-curvature="0"
       d="m -631.0597,966.02281 c 4.3683,4.484 8.498,9.0224 12.3441,13.625 -4.4851,-4.3776 -9.1817,-8.4966 -14.108,-12.3362 0.5901,-0.4251 1.1813,-0.8466 1.7639,-1.2888 z"
       style="fill:#000000;fill-rule:evenodd;stroke:#000000;stroke-width:1.5;stroke-linecap:butt;stroke-linejoin:miter;stroke-dasharray:none;fill-opacity:1;stroke-opacity:1;stroke-miterlimit:4"
       id="path987" />
    <path
       inkscape:connector-curvature="0"
       d="m -607.7307,940.41121 c 8.198,7.8125 14.2441,19.5201 13.1396,31.5477 -9.6575,2.8812 -22.5106,-1.9997 -31.9559,-9.6104 6.9948,-6.0583 13.3582,-13.4153 18.8163,-21.9373 z"
       style="fill:#ffcc00;fill-rule:evenodd;stroke:#000000;stroke-width:1.88999999;stroke-linecap:butt;stroke-linejoin:miter;stroke-dasharray:none;fill-opacity:1;stroke-opacity:1"
       id="path989" />
    <path
       inkscape:connector-curvature="0"
       d="m -615.0749,950.52561 c 4.5901,4.6834 8.9209,9.4253 12.942,14.2373 -4.5604,-4.4516 -9.3399,-8.6356 -14.3566,-12.5302 0.4787,-0.558 0.9452,-1.1349 1.4146,-1.7071 z"
       style="fill:#000000;fill-rule:evenodd;stroke:#000000;stroke-width:1.5;stroke-linecap:butt;stroke-linejoin:miter;stroke-dasharray:none;fill-opacity:1;stroke-opacity:1;stroke-miterlimit:4"
       id="path991" />
    <path
       inkscape:connector-curvature="0"
       d="m -595.048,905.42471 c 14.9828,0.5515 34.2843,20.3149 32.3825,41.0273 -12.4105,3.7025 -30.1003,-5.4103 -39.0494,-16.6663 2.5251,-5.0578 4.7687,-10.423 6.6669,-16.0973 z"
       style="fill:#ffcc00;fill-rule:evenodd;stroke:#000000;stroke-width:3;stroke-linecap:butt;stroke-linejoin:miter;stroke-dasharray:none;fill-opacity:1;stroke-opacity:1;stroke-miterlimit:4"
       id="path993" />
    <path
       inkscape:connector-curvature="0"
       d="m -595.048,913.50551 c 9.1078,8.3966 17.4919,16.956 24.8407,25.7505 -8.0947,-7.9008 -16.8778,-14.961 -26.4563,-21.05 0.5597,-1.4863 1.1038,-2.9873 1.6156,-4.5176 z"
       style="fill:#000000;fill-rule:evenodd;stroke:#000000;stroke-width:1.5;stroke-linecap:butt;stroke-linejoin:miter;stroke-dasharray:none;fill-opacity:1;stroke-opacity:1;stroke-miterlimit:4"
       id="path995" />
    <path
       inkscape:connector-curvature="0"
       d="m -597.6595,920.78221 c 12.8484,5.68 25.4769,21.9834 23.9212,38.9237 -11.6164,3.4656 -27.857,-4.298 -37.2269,-14.5363 5.1799,-7.216 9.6839,-15.3721 13.3057,-24.3874 z"
       style="fill:#ffcc00;fill-rule:evenodd;stroke:#000000;stroke-width:3;stroke-linecap:butt;stroke-linejoin:miter;stroke-dasharray:none;fill-opacity:1;stroke-opacity:1;stroke-miterlimit:4"
       id="path997" />
    <path
       inkscape:connector-curvature="0"
       d="m -602.0878,930.53371 c 7.5571,7.1849 14.5569,14.4959 20.8078,21.9762 -7.0039,-6.8363 -14.5235,-13.0424 -22.6271,-18.5356 0.6219,-1.1291 1.2277,-2.2769 1.8193,-3.4406 z"
       style="fill:#000000;fill-rule:evenodd;stroke:#000000;stroke-width:1.5;stroke-linecap:butt;stroke-linejoin:miter;stroke-dasharray:none;fill-opacity:1;stroke-opacity:1;stroke-miterlimit:4"
       id="path999" />
    <g
       id="Layer1006"
       transform="translate(-1242.9635,417.48391)"
       style="fill:#ffcc00;fill-opacity:1">
      <path
         inkscape:connector-curvature="0"
         d="m 461.7738,586.9499 -15.4965,-17.2607 c -0.7908,11.0467 -10.5902,19.14 -6.8066,26.3506 -0.8505,-3.0584 -7.0517,3.8022 -3.566,8.9063 -0.4312,1.4428 -0.947,-0.5715 -2.334,0.4583 -1.0652,0.7905 -1.2238,3.7886 -2.6987,5.0299 -3.2446,2.7309 -8.3294,4.3297 -11.4254,7.2817 -5.4524,5.1995 -8.4951,14.1984 -11.8325,20.2577 -8.0705,14.6502 -4.1547,31.1472 9.8239,28.7664 3.6343,3.071 7.6861,2.8552 8.8417,-0.2057 5.6035,8.1165 11.7897,7.9607 18.3741,2.1457 -2.7169,-1.5467 -7.501,-2.9466 -8.8895,-7.8861 -1.3885,-4.9398 3.1256,-16.6663 0.5558,-21.7537 2.3458,-2.8673 3.2653,-9.4553 6.2072,-12.0111 4.164,-3.6171 13.26969,1.26308 13.89629,-4.19582 -0.1172,4.3608 -1.56254,0.94234 1.59306,1.84714 8.054,-2.3679 15.74325,-4.479 23.81555,-6.3326 -2.4416,-10.6398 -7.3982,-14.67842 -21.3733,-5.29282 3.8011,-6.8205 -2.0379,-10.1426 -5.9908,-6.5622 3.0352,-1.9283 2.6284,-7.4371 -1.4774,-7.9176 3.4674,0.1229 6.3466,-7.7747 8.7831,-11.6254 z"
         style="fill:#ffcc00;fill-opacity:1;fill-rule:evenodd;stroke:#000000;stroke-width:5;stroke-linecap:butt;stroke-linejoin:miter;stroke-miterlimit:4;stroke-dasharray:none;stroke-opacity:1"
         id="path1007"
         sodipodi:nodetypes="cccccccccccsccccccccc" />
      <path
         inkscape:connector-curvature="0"
         d="m 422.5165,626.9299 c -5.7493,7.1867 -14.9496,22.7942 -5.0785,39.8102"
         style="fill:#ffcc00;fill-rule:evenodd;stroke:#000000;stroke-width:1.88999999;stroke-linecap:butt;stroke-linejoin:miter;stroke-dasharray:none;fill-opacity:1;stroke-opacity:1"
         id="path1009" />
      <path
         inkscape:connector-curvature="0"
         d="m 432.4819,625.0152 c -5.7496,7.1867 -14.0072,28.3389 -6.2022,41.5192"
         style="fill:#ffcc00;fill-rule:evenodd;stroke:#000000;stroke-width:1.88999999;stroke-linecap:butt;stroke-linejoin:miter;stroke-dasharray:none;fill-opacity:1;stroke-opacity:1"
         id="path1011" />
    </g>
    <path
       inkscape:connector-curvature="0"
       d="m -752.8162,993.45821 c -7.8665,-6.0868 -25.7416,8.59129 -25.0679,22.88429 11.4886,2.6505 31.9888,-14.4724 25.0679,-22.88429 z"
       style="fill:#ffcc00;fill-rule:evenodd;stroke:#000000;stroke-width:3;stroke-linecap:butt;stroke-linejoin:miter;stroke-dasharray:none;fill-opacity:1;stroke-opacity:1;stroke-miterlimit:4"
       id="path1014" />
    <path
       inkscape:connector-curvature="0"
       d="m -751.6896,995.54151 -2.3915,-2.8491 c -7.1267,6.3322 -13.6733,12.75659 -19.2847,19.32779 6.5087,-6.3511 13.6883,-11.8993 21.6762,-16.47869 z"
       style="fill:#000000;fill-rule:evenodd;stroke:#000000;stroke-width:1.5;stroke-linecap:butt;stroke-linejoin:miter;stroke-dasharray:none;fill-opacity:1;stroke-opacity:1;stroke-miterlimit:4"
       id="path1016" />
    <path
       inkscape:connector-curvature="0"
       d="m -772.2795,984.45621 c -7.8657,-6.0869 -25.7412,8.5912 -25.0675,22.88419 11.4882,2.6505 31.9891,-14.47229 25.0675,-22.88419 z"
       style="fill:#ffcc00;fill-rule:evenodd;stroke:#000000;stroke-width:3;stroke-linecap:butt;stroke-linejoin:miter;stroke-dasharray:none;fill-opacity:1;stroke-opacity:1;stroke-miterlimit:4"
       id="path1018" />
    <path
       inkscape:connector-curvature="0"
       d="m -771.1521,986.53941 -2.3919,-2.8491 c -7.1263,6.3323 -13.6729,12.7567 -19.2847,19.32789 6.5087,-6.35119 13.6886,-11.89929 21.6766,-16.47879 z"
       style="fill:#000000;fill-rule:evenodd;stroke:#000000;stroke-width:1.5;stroke-linecap:butt;stroke-linejoin:miter;stroke-dasharray:none;fill-opacity:1;stroke-opacity:1;stroke-miterlimit:4"
       id="path1020" />
    <path
       inkscape:connector-curvature="0"
       d="m -791.9621,966.29571 c -9.6964,-2.2197 -19.7483,18.6074 -13.1289,31.2947 11.539,-2.4197 22.9454,-26.5681 13.1289,-31.2947 z"
       style="fill:#ffcc00;fill-rule:evenodd;stroke:#000000;stroke-width:3;stroke-linecap:butt;stroke-linejoin:miter;stroke-dasharray:none;fill-opacity:1;stroke-opacity:1;stroke-miterlimit:4"
       id="path1022" />
    <path
       inkscape:connector-curvature="0"
       d="m -790.0635,967.71311 -3.3681,-1.5814 c -3.8054,8.7398 -7.0456,17.3186 -9.3764,25.6391 3.237,-8.4973 7.4203,-16.5474 12.7445,-24.0577 z"
       style="fill:#000000;fill-rule:evenodd;stroke:#000000;stroke-width:1.5;stroke-linecap:butt;stroke-linejoin:miter;stroke-dasharray:none;fill-opacity:1;stroke-opacity:1;stroke-miterlimit:4"
       id="path1024" />
    <path
       inkscape:connector-curvature="0"
       d="m -766.8095,987.98431 c -8.8392,-4.5612 -23.758,13.11179 -20.5042,27.04609 11.779,0.5259 28.8357,-20.02729 20.5042,-27.04609 z"
       style="fill:#ffcc00;fill-rule:evenodd;stroke:#000000;stroke-width:3;stroke-linecap:butt;stroke-linejoin:miter;stroke-dasharray:none;fill-opacity:1;stroke-opacity:1;stroke-miterlimit:4"
       id="path1026" />
    <path
       inkscape:connector-curvature="0"
       d="m -765.3236,989.82901 -2.868,-2.369 c -5.8611,7.5185 -11.1342,15.02239 -15.4622,22.50159 5.2496,-7.4253 11.3046,-14.18219 18.3302,-20.13259 z"
       style="fill:#000000;fill-rule:evenodd;stroke:#000000;stroke-width:1.5;stroke-linecap:butt;stroke-linejoin:miter;stroke-dasharray:none;fill-opacity:1;stroke-opacity:1;stroke-miterlimit:4"
       id="path1028" />
    <path
       inkscape:connector-curvature="0"
       d="m -778.1352,973.00691 c -8.8395,-4.5612 -23.7584,13.1117 -20.5046,27.04609 11.7787,0.5258 28.8358,-20.02729 20.5046,-27.04609 z"
       style="fill:#ffcc00;fill-rule:evenodd;stroke:#000000;stroke-width:3;stroke-linecap:butt;stroke-linejoin:miter;stroke-dasharray:none;fill-opacity:1;stroke-opacity:1;stroke-miterlimit:4"
       id="path1030" />
    <path
       inkscape:connector-curvature="0"
       d="m -776.6496,974.85151 -2.868,-2.369 c -5.8611,7.5186 -11.1346,15.0225 -15.4622,22.5017 5.2496,-7.4253 11.3046,-14.1823 18.3302,-20.1327 z"
       style="fill:#000000;fill-rule:evenodd;stroke:#000000;stroke-width:1.5;stroke-linecap:butt;stroke-linejoin:miter;stroke-dasharray:none;fill-opacity:1;stroke-opacity:1;stroke-miterlimit:4"
       id="path1032" />
    <path
       inkscape:connector-curvature="0"
       d="m -738.5518,973.00301 c -10.3516,-6.2551 -29.8941,13.969 -27.0843,31.14009 14.2469,1.5988 36.6189,-21.94449 27.0843,-31.14009 z"
       style="fill:#ffcc00;fill-rule:evenodd;stroke:#000000;stroke-width:3;stroke-linecap:butt;stroke-linejoin:miter;stroke-dasharray:none;fill-opacity:1;stroke-opacity:1;stroke-miterlimit:4"
       id="path1034" />
    <path
       inkscape:connector-curvature="0"
       d="m -736.8993,975.36241 -3.2867,-3.1081 c -7.7243,8.6434 -14.7349,17.3168 -20.596,26.0373 6.9752,-8.5798 14.8728,-16.2834 23.8827,-22.9292 z"
       style="fill:#000000;fill-rule:evenodd;stroke:#000000;stroke-width:1.5;stroke-linecap:butt;stroke-linejoin:miter;stroke-dasharray:none;fill-opacity:1;stroke-opacity:1;stroke-miterlimit:4"
       id="path1036" />
    <path
       inkscape:connector-curvature="0"
       d="m -777.3612,949.13141 c -10.3515,-6.2551 -29.8941,13.969 -27.0846,31.1401 14.2473,1.5989 36.6193,-21.9445 27.0846,-31.1401 z"
       style="fill:#ffcc00;fill-rule:evenodd;stroke:#000000;stroke-width:1.88999999;stroke-linecap:butt;stroke-linejoin:miter;stroke-dasharray:none;fill-opacity:1;stroke-opacity:1"
       id="path1038" />
    <path
       inkscape:connector-curvature="0"
       d="m -775.7091,951.49081 -3.2866,-3.1081 c -7.7243,8.6434 -14.7349,17.3168 -20.5957,26.0373 6.9749,-8.5798 14.8724,-16.2833 23.8823,-22.9292 z"
       style="fill:#000000;fill-rule:evenodd;stroke:#000000;stroke-width:1.5;stroke-linecap:butt;stroke-linejoin:miter;stroke-dasharray:none;fill-opacity:1;stroke-opacity:1;stroke-miterlimit:4"
       id="path1040" />
    <path
       inkscape:connector-curvature="0"
       d="m -763.9265,959.48621 c -10.3512,-6.2551 -29.8938,13.969 -27.084,31.1401 14.247,1.5988 36.6193,-21.9445 27.084,-31.1401 z"
       style="fill:#ffcc00;fill-rule:evenodd;stroke:#000000;stroke-width:1.88999999;stroke-linecap:butt;stroke-linejoin:miter;stroke-dasharray:none;fill-opacity:1;stroke-opacity:1"
       id="path1042" />
    <path
       inkscape:connector-curvature="0"
       d="m -762.2741,961.84561 -3.2866,-3.1081 c -7.7243,8.6434 -14.7346,17.3168 -20.5957,26.0373 6.9749,-8.5798 14.8728,-16.2834 23.8823,-22.9292 z"
       style="fill:#000000;fill-rule:evenodd;stroke:#000000;stroke-width:0.63010001;stroke-linecap:butt;stroke-linejoin:miter;stroke-dasharray:none;fill-opacity:1;stroke-opacity:1"
       id="path1044" />
    <path
       inkscape:connector-curvature="0"
       d="m -752.1282,968.65111 c -10.3513,-6.2551 -29.8938,13.969 -27.0844,31.1401 14.2473,1.59889 36.6193,-21.9445 27.0844,-31.1401 z"
       style="fill:#ffcc00;fill-rule:evenodd;stroke:#000000;stroke-width:1.88999999;stroke-linecap:butt;stroke-linejoin:miter;stroke-dasharray:none;fill-opacity:1;stroke-opacity:1"
       id="path1046" />
    <path
       inkscape:connector-curvature="0"
       d="m -750.4758,971.01051 -3.2867,-3.1081 c -7.7243,8.6434 -14.7349,17.3168 -20.5956,26.0373 6.9749,-8.5798 14.8724,-16.2833 23.8823,-22.9292 z"
       style="fill:#000000;fill-rule:evenodd;stroke:#000000;stroke-width:1.5;stroke-linecap:butt;stroke-linejoin:miter;stroke-dasharray:none;fill-opacity:1;stroke-opacity:1;stroke-miterlimit:4"
       id="path1048" />
    <path
       inkscape:connector-curvature="0"
       d="m -717.3954,969.60491 c -10.1222,-11.0689 -38.0195,5.3299 -39.5162,26.3491 15.8551,7.07239 47.8985,-12.1558 39.5162,-26.3491 z"
       style="fill:#ffcc00;fill-rule:evenodd;stroke:#000000;stroke-width:3;stroke-linecap:butt;stroke-linejoin:miter;stroke-dasharray:none;fill-opacity:1;stroke-opacity:1;stroke-miterlimit:4"
       id="path1050" />
    <path
       inkscape:connector-curvature="0"
       d="m -716.1526,972.95621 -2.9063,-4.8209 c -11.2049,7.2381 -21.6015,14.772 -30.6964,22.7817 10.3305,-7.4381 21.4758,-13.5186 33.6027,-17.9608 z"
       style="fill:#000000;fill-rule:evenodd;stroke:#000000;stroke-width:1.5;stroke-linecap:butt;stroke-linejoin:miter;stroke-dasharray:none;fill-opacity:1;stroke-opacity:1;stroke-miterlimit:4"
       id="path1052" />
    <path
       inkscape:connector-curvature="0"
       d="m -733.6945,956.29741 c -10.9148,-10.2894 -37.5212,8.1286 -37.4573,29.2011 16.3356,5.8797 46.8673,-15.6668 37.4573,-29.2011 z"
       style="fill:#ffcc00;fill-rule:evenodd;stroke:#000000;stroke-width:1.88999999;stroke-linecap:butt;stroke-linejoin:miter;stroke-dasharray:none;fill-opacity:1;stroke-opacity:1"
       id="path1054" />
    <path
       inkscape:connector-curvature="0"
       d="m -732.2074,959.54761 -3.2549,-4.5926 c -10.6384,8.0476 -20.4484,16.3298 -28.9257,24.9907 9.7514,-8.1822 20.4159,-15.0707 32.1806,-20.3981 z"
       style="fill:#000000;fill-rule:evenodd;stroke:#000000;stroke-width:1.5;stroke-linecap:butt;stroke-linejoin:miter;stroke-dasharray:none;fill-opacity:1;stroke-opacity:1;stroke-miterlimit:4"
       id="path1056" />
    <path
       inkscape:connector-curvature="0"
       d="m -769.0375,932.81911 c -11.8715,-9.1699 -36.5425,11.7675 -34.4114,32.7321 16.8335,4.2501 45.1041,-20.1859 34.4114,-32.7321 z"
       style="fill:#ffcc00;fill-rule:evenodd;stroke:#000000;stroke-width:3;stroke-linecap:butt;stroke-linejoin:miter;stroke-dasharray:none;fill-opacity:1;stroke-opacity:1;stroke-miterlimit:4"
       id="path1058" />
    <path
       inkscape:connector-curvature="0"
       d="m -767.2386,935.90751 -3.6899,-4.2511 c -9.7972,9.0517 -18.7474,18.2559 -26.3339,27.7058 8.9013,-9.0988 18.8389,-16.9996 30.0238,-23.4547 z"
       style="fill:#000000;fill-rule:evenodd;stroke:#000000;stroke-width:1.5;stroke-linecap:butt;stroke-linejoin:miter;stroke-dasharray:none;fill-opacity:1;stroke-opacity:1;stroke-miterlimit:4"
       id="path1060" />
    <path
       inkscape:connector-curvature="0"
       d="m -752.4715,945.83791 c -11.8715,-9.1699 -36.5425,11.7676 -34.4114,32.7322 16.8331,4.2501 45.1041,-20.1859 34.4114,-32.7322 z"
       style="fill:#ffcc00;fill-rule:evenodd;stroke:#000000;stroke-width:3;stroke-linecap:butt;stroke-linejoin:miter;stroke-dasharray:none;fill-opacity:1;stroke-opacity:1;stroke-miterlimit:4"
       id="path1062" />
    <path
       inkscape:connector-curvature="0"
       d="m -750.6726,948.92641 -3.69,-4.2512 c -9.7972,9.0517 -18.7474,18.2559 -26.3342,27.7059 8.9017,-9.0988 18.8389,-16.9996 30.0242,-23.4547 z"
       style="fill:#000000;fill-rule:evenodd;stroke:#000000;stroke-width:1.5;stroke-linecap:butt;stroke-linejoin:miter;stroke-dasharray:none;fill-opacity:1;stroke-opacity:1;stroke-miterlimit:4"
       id="path1064" />
    <path
       inkscape:connector-curvature="0"
       d="m -728.6825,958.54171 c -6.7623,7.6654 -11.3899,18.0591 -10.4115,28.7057 6.9048,2.0593 15.4432,0.1543 23.2025,-3.8789 l 5.4064,-10.7106 c -6.2991,-3.601 -12.4074,-8.2819 -18.1974,-14.1162 z"
       style="fill:#ffcc00;fill-rule:evenodd;stroke:#000000;stroke-width:3;stroke-linecap:butt;stroke-linejoin:miter;stroke-dasharray:none;fill-opacity:1;stroke-opacity:1;stroke-miterlimit:4"
       id="path1066" />
    <path
       inkscape:connector-curvature="0"
       d="m -719.4493,966.68001 c -4.2787,4.4016 -8.3262,8.8552 -12.1012,13.37 4.3915,-4.2844 8.986,-8.3215 13.8001,-12.0908 -0.5691,-0.4137 -1.1342,-0.8462 -1.6989,-1.2792 z"
       style="fill:#000000;fill-rule:evenodd;stroke:#000000;stroke-width:1.5;stroke-linecap:butt;stroke-linejoin:miter;stroke-dasharray:none;fill-opacity:1;stroke-opacity:1;stroke-miterlimit:4"
       id="path1068" />
    <path
       inkscape:connector-curvature="0"
       d="m -742.7447,941.01171 c -8.0962,7.8114 -14.0344,19.4232 -12.9381,31.3508 9.5689,2.8538 22.2748,-1.9071 31.6976,-9.3932 -6.6737,-5.8614 -12.9838,-13.1581 -18.7595,-21.9576 z"
       style="fill:#ffcc00;fill-rule:evenodd;stroke:#000000;stroke-width:3;stroke-linecap:butt;stroke-linejoin:miter;stroke-dasharray:none;fill-opacity:1;stroke-opacity:1;stroke-miterlimit:4"
       id="path1070" />
    <path
       inkscape:connector-curvature="0"
       d="m -735.3619,951.10211 c -4.5287,4.627 -8.8042,9.311 -12.7774,14.063 4.5037,-4.394 9.221,-8.528 14.1694,-12.3794 -0.4679,-0.5494 -0.9294,-1.1178 -1.392,-1.6836 z"
       style="fill:#000000;fill-rule:evenodd;stroke:#000000;stroke-width:1.5;stroke-linecap:butt;stroke-linejoin:miter;stroke-dasharray:none;fill-opacity:1;stroke-opacity:1;stroke-miterlimit:4"
       id="path1072" />
    <path
       inkscape:connector-curvature="0"
       d="m -756.8359,905.95551 c -14.7224,1.8232 -32.6211,20.9207 -30.7847,40.9001 12.2487,3.6528 29.6373,-5.1702 38.6983,-16.2176 -2.813,-5.2206 -5.4624,-10.8588 -7.9136,-16.9496 z"
       style="fill:#ffcc00;fill-rule:evenodd;stroke:#000000;stroke-width:3;stroke-linecap:butt;stroke-linejoin:miter;stroke-dasharray:none;fill-opacity:1;stroke-opacity:1;stroke-miterlimit:4"
       id="path1074" />
    <path
       inkscape:connector-curvature="0"
       d="m -756.3208,914.91971 c -8.6891,8.0726 -16.6995,16.2984 -23.7562,24.7385 7.8439,-7.6528 16.3352,-14.5166 25.569,-20.4741 -0.6158,-1.395 -1.2188,-2.8191 -1.8128,-4.2644 z"
       style="fill:#000000;fill-rule:evenodd;stroke:#000000;stroke-width:1.5;stroke-linecap:butt;stroke-linejoin:miter;stroke-dasharray:none;fill-opacity:1;stroke-opacity:1;stroke-miterlimit:4"
       id="path1076" />
    <path
       inkscape:connector-curvature="0"
       d="m -753.4335,921.56161 c -12.5652,5.9965 -24.6346,21.9666 -23.1104,38.5479 11.5472,3.4435 27.6616,-4.2004 37.0619,-14.3423 -5.0513,-6.9731 -9.735,-15.0303 -13.9515,-24.2056 z"
       style="fill:#ffcc00;fill-rule:evenodd;stroke:#000000;stroke-width:3;stroke-linecap:butt;stroke-linejoin:miter;stroke-dasharray:none;fill-opacity:1;stroke-opacity:1;stroke-miterlimit:4"
       id="path1078" />
    <path
       inkscape:connector-curvature="0"
       d="m -748.5701,931.30381 c -7.4124,7.067 -14.283,14.2562 -20.4299,21.6083 6.9085,-6.7402 14.3184,-12.8685 22.2963,-18.3041 -0.6287,-1.0845 -1.2531,-2.1797 -1.8664,-3.3042 z"
       style="fill:#000000;fill-rule:evenodd;stroke:#000000;stroke-width:1.5;stroke-linecap:butt;stroke-linejoin:miter;stroke-dasharray:none;fill-opacity:1;stroke-opacity:1;stroke-miterlimit:4"
       id="path1080" />
    <g
       id="g5723"
       style="opacity:1">
      <path
         style="color:#000000;font-style:normal;font-variant:normal;font-weight:normal;font-stretch:normal;font-size:medium;line-height:normal;font-family:sans-serif;font-variant-ligatures:normal;font-variant-position:normal;font-variant-caps:normal;font-variant-numeric:normal;font-variant-alternates:normal;font-variant-east-asian:normal;font-feature-settings:normal;font-variation-settings:normal;text-indent:0;text-align:start;text-decoration:none;text-decoration-line:none;text-decoration-style:solid;text-decoration-color:#000000;letter-spacing:normal;word-spacing:normal;text-transform:none;writing-mode:lr-tb;direction:ltr;text-orientation:mixed;dominant-baseline:auto;baseline-shift:baseline;text-anchor:start;white-space:normal;shape-padding:0;shape-margin:0;inline-size:0;clip-rule:nonzero;display:inline;overflow:visible;visibility:visible;isolation:auto;mix-blend-mode:normal;color-interpolation:sRGB;color-interpolation-filters:linearRGB;solid-color:#000000;solid-opacity:1;vector-effect:none;fill:#ffffff;fill-opacity:1;fill-rule:evenodd;stroke:none;stroke-width:6;stroke-linecap:butt;stroke-linejoin:miter;stroke-miterlimit:4;stroke-dasharray:none;stroke-dashoffset:0;stroke-opacity:1.0;color-rendering:auto;image-rendering:auto;shape-rendering:auto;text-rendering:auto;enable-background:accumulate;stop-color:#000000;stop-opacity:1;"
         d="m -756.8359,799.13781 h 161.7879 v 114.5506 c -26.9143,80.4524 -121.0939,101.11769 -161.7879,0 z"
         id="path5725" />
    </g>
    <path
       inkscape:connector-curvature="0"
       d="m -756.8359,799.13781 h 161.7879 l -146.24365,140.10995 c -5.008,-7.7282 -8.48725,-15.8401 -12.54945,-25.9337 z"
       style="fill:#fe0000;fill-rule:evenodd;stroke:none;stroke-width:0.6301;stroke-linecap:butt;stroke-linejoin:miter;stroke-dasharray:none;stroke-opacity:1;fill-opacity:1"
       id="path1084"
       sodipodi:nodetypes="ccccc" />
    <path
       inkscape:connector-curvature="0"
       d="m -676.03369,491.93741 11.61123,35.97188 37.79973,-0.0727 -30.62304,22.15911 11.74973,35.92693 -30.53765,-22.27672 -30.53765,22.27672 11.74973,-35.92693 -30.62304,-22.15911 37.79935,0.0726 z"
       style="fill:#ffe900;fill-rule:evenodd;stroke:#000000;stroke-width:3;stroke-linecap:butt;stroke-linejoin:miter;stroke-miterlimit:4;stroke-dasharray:none;stroke-opacity:1"
       id="path1104"
       sodipodi:nodetypes="ccccccccccc" />
    <path
       inkscape:connector-curvature="0"
       d="m -675.9715,492.49744 v 50.22441 l -11.67364,-14.81256 z"
       style="fill:#ffb100;fill-rule:evenodd;stroke:#000000;stroke-width:1;stroke-linecap:butt;stroke-linejoin:miter;stroke-miterlimit:4;stroke-dasharray:none;stroke-opacity:1;fill-opacity:1"
       id="path1106" />
    <path
       inkscape:connector-curvature="0"
       d="m -675.9715,542.72185 -18.85018,7.274 -30.62282,-22.15965 z"
       style="fill:#ffb100;fill-rule:evenodd;stroke:#000000;stroke-width:1;stroke-linecap:butt;stroke-linejoin:miter;stroke-miterlimit:4;stroke-dasharray:none;stroke-opacity:1;fill-opacity:1"
       id="path1108" />
    <path
       inkscape:connector-curvature="0"
       d="m -676.03362,563.64621 -30.5375,22.27633 30.59962,-43.20069 z"
       style="fill:#ffb100;fill-rule:evenodd;stroke:#000000;stroke-width:1;stroke-linecap:butt;stroke-linejoin:miter;stroke-miterlimit:4;stroke-dasharray:none;stroke-opacity:1;fill-opacity:1"
       id="path1110" />
    <path
       inkscape:connector-curvature="0"
       d="m -665.26475,529.12593 -10.70675,13.59592 49.34846,-14.88565 z"
       style="fill:#ffb100;fill-opacity:1;fill-rule:evenodd;stroke:#000000;stroke-width:1;stroke-linecap:butt;stroke-linejoin:miter;stroke-miterlimit:4;stroke-dasharray:none;stroke-opacity:1"
       id="path1112"
       sodipodi:nodetypes="cccc" />
    <path
       inkscape:connector-curvature="0"
       d="m -657.24593,549.99585 -18.72557,-7.274 30.47546,43.20069 z"
       style="fill:#ffb100;fill-rule:evenodd;stroke:#000000;stroke-width:1;stroke-linecap:butt;stroke-linejoin:miter;stroke-miterlimit:4;stroke-dasharray:none;stroke-opacity:1;fill-opacity:1"
       id="path1114" />
    <path
       style="fill:#000000;fill-opacity:0;fill-rule:nonzero;stroke:none;stroke-width:0.18717529;stroke-opacity:1"
       d="m 72.554506,326.5162 c -21.724213,-8.83253 -36.428692,-15.25131 -47.448934,-20.71234 -5.691071,-2.82018 -7.974728,-4.10993 -9.460689,-5.34314 -1.570882,-1.30369 -3.779993,-3.90405 -5.509616,-6.48542 -7.2242397,-10.78177 -9.3676449,-23.0503 -5.8915449,-33.72231 0.9326717,-2.86341 3.046063,-7.01014 4.8672184,-9.55007 l 0.4947406,-0.69001 1.7969339,3.59123 c 2.863605,5.72299 5.714734,9.7484 8.280853,11.69144 6.566617,4.97219 30.456268,20.82455 50.663932,33.61887 l 4.063267,2.57263 -0.547647,0.756 c -2.970563,4.10075 -1.823227,12.393 3.219864,23.27126 0.71588,1.54419 1.346528,2.91291 1.401441,3.0416 0.05491,0.12868 -0.01445,0.2275 -0.154153,0.2196 -0.139699,-0.008 -2.738747,-1.0246 -5.775666,-2.25934 z"
       id="path4667"
       inkscape:connector-curvature="0"
       transform="translate(-925.65986,476.35703)" />
  </g>
  <g
     inkscape:groupmode="layer"
     id="layer5"
     inkscape:label="Layer 3">
    <path
       id="path5727"
       d="m 165.81876,320.02929 v 3 115.13086 l 0.2168,0.53906 c 20.67268,51.36812 55.67645,72.65627 89.08594,69.95899 33.40948,-2.69728 64.56344,-28.97563 78.33008,-70.12696 l 0.15429,-0.46289 V 320.02929 Z m 6,6 h 155.78711 v 110.98438 c -13.21379,39.06227 -42.48985,63.20353 -72.96679,65.66406 -30.47622,2.46047 -62.7828,-16.35694 -82.82032,-65.7207 z"
       style="color:#000000;font-style:normal;font-variant:normal;font-weight:normal;font-stretch:normal;font-size:medium;line-height:normal;font-family:sans-serif;font-variant-ligatures:normal;font-variant-position:normal;font-variant-caps:normal;font-variant-numeric:normal;font-variant-alternates:normal;font-variant-east-asian:normal;font-feature-settings:normal;font-variation-settings:normal;text-indent:0;text-align:start;text-decoration:none;text-decoration-line:none;text-decoration-style:solid;text-decoration-color:#000000;letter-spacing:normal;word-spacing:normal;text-transform:none;writing-mode:lr-tb;direction:ltr;text-orientation:mixed;dominant-baseline:auto;baseline-shift:baseline;text-anchor:start;white-space:normal;shape-padding:0;shape-margin:0;inline-size:0;clip-rule:nonzero;display:inline;overflow:visible;visibility:visible;opacity:1;isolation:auto;mix-blend-mode:normal;color-interpolation:sRGB;color-interpolation-filters:linearRGB;solid-color:#000000;solid-opacity:1;vector-effect:none;fill:#000000;fill-opacity:1;fill-rule:evenodd;stroke:none;stroke-width:6;stroke-linecap:butt;stroke-linejoin:miter;stroke-miterlimit:4;stroke-dasharray:none;stroke-dashoffset:0;stroke-opacity:1;color-rendering:auto;image-rendering:auto;shape-rendering:auto;text-rendering:auto;enable-background:accumulate;stop-color:#000000;stop-opacity:1" />
    <g
       transform="translate(-211.88242,-205.14411)"
       style="font-style:normal;font-variant:normal;font-weight:bold;font-stretch:normal;font-size:29.0347px;line-height:1.25;font-family:'Rockwell Nova';-inkscape-font-specification:'Rockwell Nova Bold';stroke-width:0.725868"
       id="text1023"
       aria-label="KARTIKA  EKA  PAKSI">
      <path
         transform="translate(211.88242,205.14411)"
         d="M 249.27148 555.15625 L 249.27148 558.30273 L 250.9375 558.32031 L 250.9375 578.07617 L 249.27148 578.0625 L 249.27148 581.20898 L 259.68164 581.28906 L 259.68164 573.29492 L 256.95508 573.27148 L 256.95508 578.12305 L 254.13477 578.10156 L 254.13477 569.39258 L 256.42969 569.41406 L 256.42969 566.27148 L 254.13477 566.24805 L 254.13477 558.35352 L 256.95508 558.38281 L 256.95508 562.83789 L 259.68164 562.86523 L 259.68164 555.26953 L 249.27148 555.15625 z M 261.52539 555.30859 L 261.52539 558.45117 L 263.13086 558.51758 L 263.13086 578.26367 L 261.52539 578.19336 L 261.52539 581.33789 L 267.61914 581.60547 L 267.61914 578.46094 L 266.32617 578.4043 L 266.32617 558.64844 L 267.61914 558.70117 L 267.61914 555.55469 L 261.52539 555.30859 z M 234.87891 555.41992 L 226.50195 555.76367 L 226.50195 558.93945 L 228.07227 558.87305 L 225.58008 578.93555 L 224.14258 579.01172 L 224.14258 582.19336 L 230.24219 581.85352 L 230.24219 578.68555 L 228.79688 578.76172 L 229.33789 572.77539 L 232.06055 572.63672 L 232.60156 578.55859 L 231.1582 578.63477 L 231.1582 581.80273 L 237.21289 581.46875 L 237.21289 578.31055 L 235.79297 578.38672 L 233.32031 558.64844 L 234.87891 558.58008 L 234.87891 555.41992 z M 268.35352 555.58398 L 268.35352 558.73047 L 269.73633 558.78711 L 266.59766 568.11328 L 269.85742 578.55859 L 268.41406 578.49414 L 268.41406 581.64062 L 274.60938 581.91602 L 274.60938 578.76562 L 273.11914 578.70117 L 269.64648 567.56836 L 272.60938 558.9043 L 274.05273 558.96289 L 274.05273 555.81445 L 268.35352 555.58398 z M 223.36523 555.91211 L 217.70312 556.31445 L 217.70312 559.50586 L 219.08203 559.40625 L 215.94922 569.24023 L 219.20117 579.42969 L 217.76367 579.55273 L 217.76367 582.74609 L 223.91602 582.20898 L 223.91602 579.02734 L 222.44141 579.1543 L 218.99219 568.31641 L 221.93555 559.19727 L 223.36523 559.09375 L 223.36523 555.91211 z M 277.08594 556.00781 L 277.08594 559.16016 L 278.63672 559.26953 L 276.17578 578.88477 L 274.76172 578.77539 L 274.76172 581.92578 L 280.78711 582.39648 L 280.78711 579.24023 L 279.35156 579.13086 L 279.89062 573.24414 L 282.5957 573.44727 L 283.13477 579.42188 L 281.69727 579.3125 L 281.69727 582.46875 L 287.75195 582.94336 L 287.75195 579.7793 L 286.32617 579.66992 L 283.85352 559.63672 L 285.41016 559.74805 L 285.41016 556.58594 L 277.08594 556.00781 z M 216.96875 556.36523 L 210.85547 556.80078 L 210.85547 560.00586 L 212.4707 559.88867 L 212.4707 580.00391 L 210.85547 580.14258 L 210.85547 583.34961 L 216.96875 582.81445 L 216.96875 579.62109 L 215.67773 579.73047 L 215.67773 559.6543 L 216.96875 559.56055 L 216.96875 556.36523 z M 209.4668 556.92383 L 202.70312 557.57422 L 202.70312 560.79492 L 204.45703 560.62305 L 204.45703 580.82812 L 202.70312 581.02148 L 202.70312 584.24219 L 209.4668 583.48633 L 209.4668 580.27734 L 207.69531 580.47266 L 207.69531 560.30469 L 209.4668 560.13086 L 209.4668 556.92383 z M 201.42383 557.71094 L 189.65234 559.15625 L 189.65234 568.95117 L 192.05664 568.64648 L 192.05664 561.68359 L 193.96289 561.44922 L 193.96289 582.14453 L 192.17578 582.37891 L 192.17578 585.61133 L 198.93164 584.7168 L 198.93164 581.49219 L 197.15234 581.72656 L 197.15234 561.05273 L 199.05078 560.81836 L 199.05078 567.76367 L 201.42383 567.46484 L 201.42383 557.71094 z M 299.76367 557.82031 L 299.76367 561.01172 L 301.58203 561.21875 L 301.58203 581.30273 L 299.76367 581.06055 L 299.76367 584.25391 L 306.61328 585.18555 L 306.61328 581.97266 L 304.74805 581.72266 L 304.74805 574.70898 L 305.10547 574.75391 C 307.22765 575.02212 308.82792 574.53544 309.90039 573.28906 C 310.98507 572.0296 311.52734 570.07995 311.52734 567.44336 C 311.52734 564.94864 310.99432 562.87737 309.92969 561.23242 C 308.87719 559.59184 307.36218 558.6645 305.38867 558.44531 L 299.76367 557.82031 z M 230.88867 557.82812 L 231.83594 569.46484 L 229.56445 569.57422 L 230.51172 557.8457 L 230.88867 557.82812 z M 281.05469 558.52148 L 281.42969 558.54688 L 282.37109 570.25586 L 280.11328 570.08789 L 281.05469 558.52148 z M 314.5918 559.56641 L 314.5918 562.79883 L 316.14062 563.0293 L 313.68359 582.95898 L 312.27344 582.73438 L 312.27344 585.96484 L 318.28906 586.93359 L 318.28906 583.69336 L 316.85742 583.46484 L 317.39453 577.4668 L 320.09961 577.88867 L 320.63867 584.06836 L 319.20117 583.83984 L 319.20117 587.08008 L 325.26172 588.05664 L 325.26172 584.80469 L 323.83398 584.57812 L 321.35742 563.80664 L 322.91797 564.03906 L 322.91797 560.79297 L 314.5918 559.56641 z M 182.79102 560.3418 C 182.37487 560.32288 181.93479 560.3508 181.4707 560.42383 L 175.71484 561.33008 L 175.71484 564.55859 L 177.61328 564.25977 L 177.61328 584.54492 L 175.71484 584.83594 L 175.71484 588.06641 L 182.47461 587.03125 L 182.47461 583.79883 L 180.79883 584.05664 L 180.79883 575.14258 C 181.42734 575.04513 181.84513 574.94536 182.05469 574.8418 L 184.83984 586.66797 L 188.64844 586.08594 L 188.64844 582.84961 L 187.29883 583.05664 L 184.83984 573.4668 C 186.63821 571.80145 187.53906 569.55851 187.53906 566.73828 C 187.53906 564.58163 186.98791 562.92019 185.88867 561.75391 C 185.07201 560.86943 184.03945 560.39854 182.79102 560.3418 z M 325.41406 561.16406 L 325.41406 564.41406 L 327.125 564.74414 L 327.125 585.15039 L 325.41406 584.83203 L 325.41406 588.08398 L 331.89453 589.2832 L 331.89453 586.03906 L 330.52344 585.7832 L 330.52344 565.40039 L 331.89453 565.66602 L 331.89453 562.42188 L 325.41406 561.16406 z M 304.74805 561.58008 C 305.95177 561.71739 306.82433 562.19434 307.36328 563.00977 C 307.90278 563.81424 308.17188 565.13595 308.17188 566.97461 C 308.17188 568.51862 308.01124 569.61329 307.69141 570.25781 C 307.38175 570.90318 307.00725 571.29919 306.56836 571.44531 C 306.12982 571.57951 305.52369 571.59765 304.74805 571.50195 L 304.74805 561.58008 z M 172.76367 561.90039 L 164.28906 563.57031 L 164.28906 566.76367 L 165.86133 566.45898 L 163.36914 586.97656 L 161.94141 587.22461 L 161.94141 590.41016 L 168.04492 589.36914 L 168.04492 586.16406 L 166.58789 586.41602 L 167.13281 580.30469 L 169.88672 579.81055 L 170.4375 585.74805 L 168.97266 586.00195 L 168.97266 589.21094 L 175.16406 588.15625 L 175.16406 584.92773 L 173.70117 585.18164 L 171.16992 565.42969 L 172.76367 565.11914 L 172.76367 561.90039 z M 318.55859 562.44727 L 318.93164 562.50195 L 319.875 574.59375 L 317.61719 574.24609 L 318.55859 562.44727 z M 332.67578 562.57422 L 332.67578 565.81641 L 334.13867 566.09961 L 330.81055 575.20898 L 334.26562 586.48047 L 332.73828 586.19531 L 332.73828 589.43945 L 339.28125 590.65039 L 339.28125 587.41406 L 337.71289 587.12109 L 334.04297 575.12891 L 337.17383 566.68555 L 338.69531 566.97852 L 338.69531 563.74219 L 332.67578 562.57422 z M 181.70117 563.68164 C 182.52628 563.67879 183.11716 563.90361 183.47656 564.35352 C 183.95581 564.94164 184.19727 565.90961 184.19727 567.25977 C 184.19727 568.7402 183.92219 569.84333 183.37305 570.56836 C 182.82401 571.28141 181.96617 571.72857 180.79883 571.91016 L 180.79883 563.76172 C 181.12559 563.71047 181.42614 563.68259 181.70117 563.68164 z M 161.17969 564.21484 L 154.7207 565.80078 L 154.7207 568.93359 L 156.27148 568.56445 L 152.76562 578.77734 L 156.40625 588.29102 L 154.78711 588.60352 L 154.78711 591.73633 L 161.82031 590.43164 L 161.82031 587.24609 L 160.10938 587.57617 L 156.16992 577.36523 L 159.52539 567.78906 L 161.17969 567.39648 L 161.17969 564.21484 z M 343.67383 564.95703 C 342.95906 564.99578 342.34869 565.36851 341.8418 566.07422 C 341.16494 567.00508 340.82617 568.31204 340.82617 569.99609 C 340.82617 570.91259 340.89552 571.73618 341.03711 572.4668 C 341.18878 573.188 341.47268 574.00748 341.88672 574.92383 C 342.30038 575.82792 342.93022 576.98442 343.77539 578.39258 L 345.31055 580.93555 C 345.87126 581.84317 346.30739 582.79684 346.61719 583.79688 C 346.93675 584.79838 347.0957 585.72053 347.0957 586.5625 C 347.0957 587.32483 346.94606 587.90232 346.64648 588.29492 C 346.35669 588.68986 345.9763 588.83813 345.50586 588.74023 C 344.88455 588.61089 344.44269 588.23872 344.18164 587.625 C 343.93049 587.01303 343.80469 586.07415 343.80469 584.80664 L 343.80469 582.25391 L 341.05273 581.66211 L 341.05273 590.5625 L 343.80469 591.12695 L 343.80469 590.32227 C 344.50777 591.28868 345.32142 591.86423 346.24219 592.05273 C 347.00143 592.20816 347.67973 592.07953 348.27734 591.66797 C 348.87418 591.2456 349.34592 590.60023 349.69336 589.73047 C 350.04053 588.86138 350.21289 587.848 350.21289 586.69141 C 350.21289 585.11527 349.92521 583.57476 349.34961 582.06641 C 348.78323 580.55831 348.00292 578.99537 347.00586 577.37695 L 345.74609 575.32031 C 344.49324 573.28382 343.86523 571.49458 343.86523 569.95312 C 343.86523 569.41646 343.97068 568.98872 344.18164 568.67188 C 344.40254 568.35728 344.74023 568.25152 345.19141 568.35547 C 345.74225 568.48238 346.13137 568.823 346.36133 569.37695 C 346.59117 569.93063 346.70703 570.74872 346.70703 571.83008 L 346.70703 573.67383 L 349.42578 574.28516 L 349.42578 566.625 L 346.70703 565.99023 L 346.70703 566.75977 C 346.31732 566.24781 345.95722 565.86097 345.62695 565.60156 C 345.29644 565.33057 344.89537 565.13957 344.42383 565.0293 C 344.16254 564.96819 343.91209 564.94412 343.67383 564.95703 z M 168.69922 564.97461 L 169.6582 576.62305 L 167.36133 577.04297 L 168.31836 565.04883 L 168.69922 564.97461 z M 153.90039 566.00195 L 147.21289 567.64453 L 147.21289 570.72266 L 148.95508 570.30859 L 148.95508 589.72852 L 147.21289 590.06445 L 147.21289 593.14453 L 153.90039 591.90234 L 153.90039 588.77344 L 152.4668 589.05078 L 152.4668 569.47266 L 153.90039 569.13086 L 153.90039 566.00195 z M 351.76562 566.75977 L 351.76562 569.95117 L 353.53125 570.39453 L 353.53125 590.39453 L 351.76562 590.00586 L 351.76562 593.19922 L 358.54492 594.6582 L 358.54492 591.49805 L 356.77734 591.10742 L 356.77734 571.20898 L 358.54492 571.65234 L 358.54492 568.49219 L 351.76562 566.75977 z "
         style="stroke-width:0.725868"
         id="path1085" />
    </g>
  </g>
  <g
     inkscape:groupmode="layer"
     id="layer6"
     inkscape:label="Layer 4">
    <path
       id="path1086"
       style="fill:#ffcc00;fill-opacity:1;fill-rule:evenodd;stroke:#000000;stroke-width:4.19456;stroke-linecap:butt;stroke-linejoin:miter;stroke-miterlimit:4;stroke-dasharray:none;stroke-opacity:1"
       d="m 194.12373,184.09542 c 5.4986,-16.37952 16.0252,-14.51013 29.3726,-2.40514 35.8735,-21.45251 48.8806,30.0966 75.3126,33.95151 -4.0847,5.13006 -9.0277,7.42755 -14.6824,7.37884 4.6234,6.46469 9.8551,10.44739 15.4633,12.89178 -4.543,1.79748 -9.0371,1.91064 -13.4818,0.33935 1.9975,5.32217 5.6668,9.76396 11.9969,12.80503 -3.0363,3.06581 -6.6541,4.30863 -10.9699,3.35457 3.1945,8.17025 8.4012,13.23235 14.0626,17.592 -3.4046,0.33044 -6.8581,-0.64373 -10.3602,-2.92164 3.8547,8.41304 9.1367,15.35906 15.8476,20.83858 -4.8509,0.91765 -9.5017,0.46592 -13.8604,-1.98519 2.1743,8.90723 8.4798,15.41789 16.4652,20.95559 -4.1379,1.51355 -8.2265,1.61406 -12.2651,0.30251 3.0495,5.25652 7.4721,9.54118 13.2689,12.85561 l -10.6892,0.0727 -4.8252,-7.69619 c 1.5293,15.37006 -3.9996,16.4443 -10.6627,0.55389 -1.8821,18.25123 -6.6769,16.77232 -13.4642,1.79352 -3.1078,16.60925 -7.7293,14.89633 -13.3872,0.64857 -3.6146,17.30367 -8.2108,17.34502 -13.7872,0.12448 -4.3265,14.57029 -8.8495,14.57534 -13.5682,0.0161 -5.7929,11.42354 -10.1633,12.51713 -12.8167,0.20552 -6.0175,9.36787 -11.3292,10.7455 -12.0733,0.046 -0.4665,4.70736 -5.1674,4.93675 -10.7477,4.23792 6.4201,-2.96057 9.5828,-10.93563 12.069,-19.95161 -2.878,2.34422 -6.4319,2.73075 -10.4877,1.62296 5.8254,-4.26771 10.1687,-10.30751 12.2648,-19.10631 -2.2043,1.53664 -4.6423,1.97584 -7.2399,1.66552 4.548,-4.2046 7.9454,-9.95519 10.2283,-17.20239 l -6.2572,2.03346 c 3.4367,-7.88621 9.3753,-12.13128 10.3101,-23.65884 -1.8571,5.26509 -5.6039,6.5244 -10.2097,5.96315 8.618,-8.86171 7.0566,-24.04977 21.4279,-31.93763 -13.5582,-3.2909 -23.2993,-10.62377 -26.2352,-25.16304 7.4581,6.99901 16.423,10.44859 26.6349,10.95806 -8.9667,-7.38389 -10.557,-24.66414 -32.6536,-21.17915 z"
       inkscape:connector-curvature="0" />
    <path
       id="path1088"
       style="fill:#000000;fill-opacity:1;fill-rule:evenodd;stroke:none;stroke-width:0.660748;stroke-linecap:butt;stroke-linejoin:miter;stroke-dasharray:none"
       d="m 210.35183,292.62568 c -5.7593,11.1317 3.2341,15.62814 8.9991,0 -0.1911,14.79538 7.0342,16.73779 12.2405,0 0.5151,14.88885 9.8111,19.01559 12.8774,0 1.2077,17.31675 10.1483,19.77105 12.5095,0 3.112,16.65334 10.3783,18.73716 11.7,0 6.5584,14.6323 12.2059,15.49574 13.6868,0 3.41,11.81403 12.2159,15.75185 9.1996,-1.05192 5.5968,14.52784 -0.7951,18.60433 -8.2472,8.83069 -2.5705,9.31729 -6.9056,8.45582 -13.0203,1.471 -3.7096,9.59263 -8.2237,9.42175 -13.3111,0.32329 -2.713,9.56437 -8.3051,9.72338 -12.9727,1.21104 -4.4073,7.82694 -8.6913,6.9117 -13.2946,-2.09251 -5.779,8.00969 -10.4245,8.71753 -12.8671,-2.04567 -9.1317,11.77895 -15.8215,4.56044 -7.4999,-6.64592 z"
       inkscape:connector-curvature="0" />
    <path
       id="path1098"
       style="fill:none;stroke:#1b1918;stroke-width:0.660748;stroke-linecap:butt;stroke-linejoin:miter;stroke-dasharray:none"
       d="m 252.69003,194.3385 c -0.149,0.65363 -0.3522,1.3155 -0.6126,1.97353 -1.6775,4.24067 -5.0774,6.70431 -7.5925,5.50152 -2.5151,-1.20312 -3.1945,-5.61786 -1.5171,-9.85853 0.5687,-1.43811 1.3356,-2.67103 2.199,-3.62674 3.1302,1.49541 5.3796,3.70965 7.5232,6.01022 z"
       inkscape:connector-curvature="0" />
    <path
       id="path1090"
       style="fill:#000000;fill-opacity:1;fill-rule:evenodd;stroke:none;stroke-width:0.662216;stroke-linecap:butt;stroke-linejoin:miter;stroke-dasharray:none"
       d="m 212.65883,274.84938 c -5.4662,11.1317 3.0695,15.62814 8.5411,0 -0.1814,14.79538 6.6762,16.73779 11.6175,0 0.4889,14.88885 9.3118,19.0156 12.222,0 1.1463,17.31676 9.6318,19.77094 11.8728,0 2.9536,16.65334 9.8502,18.73717 11.1046,0 6.2245,14.63231 11.5846,15.49575 12.9902,0 3.2364,11.81403 11.5941,15.75185 8.7313,-1.05192 5.312,14.52784 -0.7546,18.60433 -7.8275,8.83058 -2.4396,9.3174 -6.5541,8.45594 -12.3576,1.47111 -3.5208,9.59263 -7.8051,9.42175 -12.6335,0.32329 -2.575,9.56438 -7.8825,9.72339 -12.3125,1.21104 -4.183,7.82694 -8.249,6.9117 -12.618,-2.09251 -5.4848,8.0097 -9.8939,8.71743 -12.2122,-2.04567 -8.6669,11.77895 -15.0163,4.56045 -7.1182,-6.64592 z"
       inkscape:connector-curvature="0" />
    <path
       id="path1092"
       style="fill:#000000;fill-opacity:1;fill-rule:evenodd;stroke:none;stroke-width:0.658126;stroke-linecap:butt;stroke-linejoin:miter;stroke-dasharray:none"
       d="m 216.01363,259.83099 c -4.9717,11.13159 2.7919,15.62803 7.7685,0 -0.1649,14.79527 6.0723,16.73769 10.5667,0 0.4446,14.88885 8.4694,19.0156 11.1164,0 1.0425,17.31676 8.7605,19.77094 10.7988,0 2.6864,16.65323 8.9591,18.73706 10.1,0 5.6616,14.63231 10.5368,15.49564 11.8152,0 2.9436,11.81392 10.5454,15.75174 7.9416,-1.05192 4.8314,14.52784 -0.6865,18.60433 -7.1195,8.83059 -2.219,9.31728 -5.9612,8.45593 -11.2398,1.4711 -3.2023,9.59263 -7.099,9.42175 -11.4907,0.32318 -2.342,9.56438 -7.1694,9.7235 -11.1988,1.21104 -3.8045,7.82705 -7.5027,6.91182 -11.4766,-2.0924 -4.9886,8.00959 -8.9989,8.71743 -11.1075,-2.04578 -7.8829,11.77906 -13.6579,4.56045 -6.4743,-6.64581 z"
       inkscape:connector-curvature="0" />
    <path
       id="path1094"
       style="fill:#000000;fill-opacity:1;fill-rule:evenodd;stroke:none;stroke-width:0.209728;stroke-linecap:butt;stroke-linejoin:miter;stroke-miterlimit:4;stroke-dasharray:none"
       d="m 217.98523,243.16358 c -4.779,11.13158 2.6837,15.62803 7.4675,0 -0.1586,14.79527 5.8369,16.73768 10.1571,0 0.4274,14.88874 8.1412,19.01559 10.6856,0 1.0021,17.31675 8.421,19.77094 10.3802,0 2.5824,16.65323 8.6119,18.73705 9.7087,0 5.4421,14.6323 10.1283,15.49563 11.3572,0 2.8295,11.81391 10.1366,15.75174 7.6338,-1.05192 4.6441,14.52784 -0.6598,18.60433 -6.8436,8.83058 -2.1329,9.31728 -5.7302,8.45582 -10.8041,1.4711 -3.0782,9.59264 -6.824,9.42175 -11.0454,0.32319 -2.2513,9.56437 -6.8916,9.72349 -10.7648,1.21104 -3.6571,7.82704 -7.2119,6.91181 -11.0318,-2.09241 -4.7953,8.00959 -8.6501,8.71743 -10.677,-2.04577 -7.5774,11.77894 -13.1286,4.56044 -6.2234,-6.64581 z"
       inkscape:connector-curvature="0" />
    <path
       id="path1096"
       style="fill:#ffffff;fill-rule:evenodd;stroke:#000000;stroke-width:2.09728;stroke-linecap:butt;stroke-linejoin:miter;stroke-miterlimit:4;stroke-dasharray:none;stroke-opacity:1"
       d="m 227.98573,187.29594 c 23.1794,-4.50469 22.9586,10.08758 34.4379,15.13154 -1.9811,0.87367 -3.864,0.71455 -5.6471,-0.47559 1.5667,2.00992 2.4183,4.65974 2.4093,8.08183 -5.8457,-8.0925 -13.8993,-2.51038 -19.2296,-6.39476 -5.0692,-3.69437 -6.9013,-12.64866 -11.9705,-16.34302 z"
       inkscape:connector-curvature="0" />
    <path
       id="path1100"
       style="fill:#000000;fill-opacity:1;fill-rule:evenodd;stroke:#000000;stroke-width:0.660748;stroke-linecap:butt;stroke-linejoin:miter;stroke-dasharray:none;stroke-opacity:1"
       d="m 252.69003,194.3385 c -0.149,0.65363 -0.3522,1.3155 -0.6126,1.97353 -1.6775,4.24067 -5.0774,6.70431 -7.5925,5.50152 -2.5151,-1.20312 -3.1945,-5.61786 -1.5171,-9.85853 0.5687,-1.43811 1.3356,-2.67103 2.199,-3.62674 3.1302,1.49541 5.3796,3.70965 7.5232,6.01022 z"
       inkscape:connector-curvature="0" />
    <ellipse
       ry="3.1513171"
       rx="2.6606078"
       cy="193.27078"
       cx="247.68019"
       id="path5663"
       style="fill:#fe0000;fill-opacity:1;stroke:none;stroke-width:1.31928;stroke-linecap:round;stroke-linejoin:round;stroke-miterlimit:4;stroke-dasharray:none;stroke-opacity:1;paint-order:fill markers stroke;stop-color:#000000" />
  </g>
</svg>
